<?xml version="1.0"?>
<svg xmlns="http://www.w3.org/2000/svg" xmlns:xlink="http://www.w3.org/1999/xlink" id="Layer_1" data-name="Layer 1" viewBox="0 0 473.36 311.32" width="473.36" height="311.32" x="0" y="0"><defs><style>.cls-1{fill:#fff;}.cls-2{fill:url(#linear-gradient);}.cls-3{fill:#545ece;}.cls-4{fill:#625e7a;}.cls-5{fill:#bdd3fa;}.cls-6{fill:#ff7867;}.cls-7{fill:#ffcbc5;}.cls-8{fill:#6c60b7;}.cls-9{fill:#ffb6ad;}.cls-10{fill:#545ed3;}.cls-11{fill:#97c2ff;}.cls-12{fill:#edf1ff;}.cls-13{fill:#74cf8f;}.cls-14{fill:#aaa7fb;}.cls-15{fill:#ffb7b0;}.cls-16{fill:#ff988e;}.cls-17{fill:#464646;}.cls-18{fill:none;stroke:#fff;stroke-linecap:round;stroke-linejoin:round;stroke-width:0;}</style><linearGradient id="linear-gradient" x1="232.5" y1="261.3" x2="232.5" y2="50.31" gradientUnits="userSpaceOnUse"><stop offset="0" stop-color="#e0e3fc"/><stop offset="1" stop-color="#aaa7fb"/></linearGradient></defs><title>Diagnostic imaging mobile</title><path class="cls-1" d="M976,434H659.77A2.82,2.82,0,0,1,657,431.2v-206a2.83,2.83,0,0,1,2.82-2.82H976a2.82,2.82,0,0,1,2.82,2.82v206A2.82,2.82,0,0,1,976,434ZM659.77,223a2.16,2.16,0,0,0-2.16,2.16v206a2.16,2.16,0,0,0,2.16,2.16H976a2.16,2.16,0,0,0,2.16-2.16v-206A2.16,2.16,0,0,0,976,223Z" transform="translate(-578.8 -179)"/><rect class="cls-2" x="71.88" y="50.31" width="321.24" height="210.98" rx="3.77"/><rect class="cls-3" x="140.6" y="59.95" width="115.29" height="51.57" rx="3.61"/><rect class="cls-1" x="82.41" y="118.14" width="141.69" height="65.38" rx="3.37"/><rect class="cls-4" x="82.41" y="190.14" width="299.64" height="62.3" rx="4"/><rect class="cls-1" x="261.19" y="59.95" width="120.86" height="51.57" rx="4"/><rect class="cls-1" x="68.97" y="59.95" width="60.53" height="51.57" rx="4"/><path class="cls-1" d="M800.59,380.68H675.14a.13.13,0,0,1,0-.26H800.59a.13.13,0,0,1,0,.26Z" transform="translate(-578.8 -179)"/><path class="cls-5" d="M703.34,273.89H653.83a.13.13,0,0,1,0-.26h49.51a.13.13,0,0,1,0,.26Z" transform="translate(-578.8 -179)"/><polygon class="cls-6" points="77.57 98.29 78.35 99.88 80.1 100.13 78.84 101.37 79.14 103.11 77.57 102.29 76 103.11 76.3 101.37 75.03 100.13 76.79 99.88 77.57 98.29"/><polygon class="cls-6" points="84.17 98.29 84.95 99.88 86.7 100.13 85.44 101.37 85.74 103.11 84.17 102.29 82.6 103.11 82.9 101.37 81.64 100.13 83.39 99.88 84.17 98.29"/><polygon class="cls-6" points="90.77 98.29 91.55 99.88 93.31 100.13 92.04 101.37 92.34 103.11 90.77 102.29 89.2 103.11 89.5 101.37 88.24 100.13 89.99 99.88 90.77 98.29"/><polygon class="cls-6" points="97.37 98.29 98.15 99.88 99.91 100.13 98.64 101.37 98.94 103.11 97.37 102.29 95.81 103.11 96.1 101.37 94.84 100.13 96.59 99.88 97.37 98.29"/><polygon class="cls-6" points="103.97 98.29 104.75 99.88 106.51 100.13 105.24 101.37 105.54 103.11 103.97 102.29 102.41 103.11 102.7 101.37 101.44 100.13 103.19 99.88 103.97 98.29"/><path class="cls-5" d="M652.59,257.85a11,11,0,0,0,3.76,8.27,10.7,10.7,0,0,0,1.39,1A11,11,0,0,0,670,249a10.08,10.08,0,0,0-1.8-1,10.95,10.95,0,0,0-8.26-.43,11.1,11.1,0,0,0-2.6,1.3A11,11,0,0,0,652.59,257.85Z" transform="translate(-578.8 -179)"/><path class="cls-7" d="M666.26,261.53v-.18S666.55,261.47,666.26,261.53Z" transform="translate(-578.8 -179)"/><path class="cls-7" d="M656.35,266.12a10.7,10.7,0,0,0,1.39,1l11.51.08-3-2.56a.88.88,0,0,0,0-.41l0-2.41v-.33a10,10,0,0,1-2.13,0c-3.18-.25-4.58-3.65-4.74-4.07,0,0,0,0,0,0v1.42h0v3.09Z" transform="translate(-578.8 -179)"/><path class="cls-7" d="M657.74,253.06a2.13,2.13,0,0,0,.62,1.56.2.2,0,0,0,.07.1c.2.21.4.38.53.5l.11.08.06,0,0,1.64s.08.24.26.63l0,0a8.65,8.65,0,0,0,2.9,3.56,4.29,4.29,0,0,0,.55.31l.33.15a4.81,4.81,0,0,0,3.08.15h.06c4-1.08,3.07-8.55,2.51-11.6-.14-.79-.26-1.29-.26-1.29a6.43,6.43,0,0,0-.33-1,10.95,10.95,0,0,0-8.26-.43l-.18,5.32a2.33,2.33,0,0,0-.27-.12l-.07,0-.19-.06-.16-.05-.1,0-.06,0C658.41,252.37,657.8,252.39,657.74,253.06Z" transform="translate(-578.8 -179)"/><path class="cls-8" d="M656.54,254.13c.89.94.3,1.19.7,2.8a2.71,2.71,0,0,0,2.12,1.88v-.06a8.13,8.13,0,0,0,0-1.1v-.23s0,0,0,0a13,13,0,0,0-.25-2l-.06,0-.11-.08-.11-.1a2.67,2.67,0,0,1-.42-.4.2.2,0,0,1-.07-.1,2.51,2.51,0,0,1-.52-1.36.73.73,0,0,1,.72-.8,2.34,2.34,0,0,1,.38,0l.06,0,.1,0,.16.05.19.06.07,0a2.33,2.33,0,0,1,.27.12l1-1.55a3.21,3.21,0,0,1,3.22-1.56,13.93,13.93,0,0,1,3.42.42,3.14,3.14,0,0,0,1.42.11,1.39,1.39,0,0,0,.94-.63A2.26,2.26,0,0,0,670,249a10.08,10.08,0,0,0-1.8-1,10.95,10.95,0,0,0-8.26-.43,11.1,11.1,0,0,0-2.6,1.3,1,1,0,0,1-.79.79C655.25,249.8,655.66,253.19,656.54,254.13Z" transform="translate(-578.8 -179)"/><path class="cls-9" d="M666.31,261.8a4,4,0,0,1-3.47-.28,12.64,12.64,0,0,1-3.48-2.71V261S663.41,264.18,666.31,261.8Z" transform="translate(-578.8 -179)"/><path class="cls-10" d="M658.21,263.5l1.17,1.83a4.06,4.06,0,0,0,3.38,1.87h1a2.32,2.32,0,0,0,2.29-1.84l.14-.68,3,2.56h0v0a11,11,0,0,1-11.51-.1s-1-.69-1.39-1Z" transform="translate(-578.8 -179)"/><rect class="cls-5" x="100.15" y="71.15" width="25.85" height="2.69" rx="1.34"/><path class="cls-11" d="M696.23,257.14H679.66a.33.33,0,0,1,0-.66h16.57a.33.33,0,1,1,0,.66Z" transform="translate(-578.8 -179)"/><path class="cls-11" d="M691.88,261H679.66a.33.33,0,0,1-.33-.33.33.33,0,0,1,.33-.33h12.22a.33.33,0,0,1,.33.33A.33.33,0,0,1,691.88,261Z" transform="translate(-578.8 -179)"/><path class="cls-11" d="M685.77,264.92h-6.11a.33.33,0,0,1-.33-.33.33.33,0,0,1,.33-.33h6.11a.33.33,0,0,1,.33.33A.33.33,0,0,1,685.77,264.92Z" transform="translate(-578.8 -179)"/><path class="cls-6" d="M738.89,250.62a1.23,1.23,0,0,0-.12-.26,3.25,3.25,0,0,0-1.16-1.31,3.06,3.06,0,0,0-1.62-.51,3.11,3.11,0,0,1-5.09-.1,3.09,3.09,0,0,0-1.64.44,3.67,3.67,0,0,0-1.58,4,3.43,3.43,0,0,0,.29.79,16,16,0,0,0,3.36,3.5l.23.19c.31.25.59.49.84.68l.44.35a.76.76,0,0,0,.4.15.69.69,0,0,0,.41-.13l.51-.37c.73-.54,1.79-1.35,2.72-2.16h0a9.94,9.94,0,0,0,1.78-1.91.43.43,0,0,1,0-.07,3.44,3.44,0,0,0,.38-1A3.78,3.78,0,0,0,738.89,250.62Z" transform="translate(-578.8 -179)"/><path class="cls-1" d="M781.48,282.16h0a.34.34,0,0,1-.29-.26l-6.23-28-7.56,20.71a.31.31,0,0,1-.3.22.34.34,0,0,1-.31-.21l-4.84-12.08-3.49,2.6a.26.26,0,0,1-.24.06A.32.32,0,0,1,758,265l-1.77-2.45-3.27,5.29a.32.32,0,0,1-.28.15H738.52a.33.33,0,0,1-.33-.33.33.33,0,0,1,.33-.33h13.94l3.44-5.55a.35.35,0,0,1,.27-.16.34.34,0,0,1,.28.14l1.86,2.58,3.56-2.65a.35.35,0,0,1,.28-.06.34.34,0,0,1,.22.2l4.68,11.68,7.65-21a.33.33,0,0,1,.63,0l6.25,28.12,5.78-13.62a.35.35,0,0,1,.22-.19.37.37,0,0,1,.29.06l3.16,2.51,6.62-19.86a.31.31,0,0,1,.29-.22.33.33,0,0,1,.32.19l8,17.76,4.67-5.6a.33.33,0,0,1,.28-.12.36.36,0,0,1,.26.17l3.14,5.54h6a.33.33,0,0,1,.33.33.33.33,0,0,1-.33.33h-6.18a.34.34,0,0,1-.29-.16l-3-5.3-4.7,5.64a.34.34,0,0,1-.3.12.32.32,0,0,1-.25-.2L798,250.66l-6.51,19.5a.3.3,0,0,1-.21.21.32.32,0,0,1-.3-.05l-3.19-2.53-6,14.17A.35.35,0,0,1,781.48,282.16Z" transform="translate(-578.8 -179)"/><path class="cls-5" d="M892.31,252.15H869.15a1.34,1.34,0,0,1-1.34-1.34h0a1.34,1.34,0,0,1,1.34-1.35h23.16a1.34,1.34,0,0,1,1.35,1.35h0A1.34,1.34,0,0,1,892.31,252.15Z" transform="translate(-578.8 -179)"/><path class="cls-6" d="M879.39,252.15H869.15a1.34,1.34,0,0,1-1.34-1.34h0a1.34,1.34,0,0,1,1.34-1.35h10.24a1.34,1.34,0,0,1,1.34,1.35h0A1.34,1.34,0,0,1,879.39,252.15Z" transform="translate(-578.8 -179)"/><path class="cls-5" d="M892.31,264.77H869.15a1.35,1.35,0,0,1-1.34-1.35h0a1.34,1.34,0,0,1,1.34-1.34h23.16a1.34,1.34,0,0,1,1.35,1.34h0A1.35,1.35,0,0,1,892.31,264.77Z" transform="translate(-578.8 -179)"/><path class="cls-6" d="M889.31,264.77H869.15a1.35,1.35,0,0,1-1.34-1.35h0a1.34,1.34,0,0,1,1.34-1.34h20.16a1.35,1.35,0,0,1,1.35,1.34h0A1.36,1.36,0,0,1,889.31,264.77Z" transform="translate(-578.8 -179)"/><path class="cls-5" d="M892.31,278.64H869.15a1.35,1.35,0,0,1-1.34-1.35h0a1.34,1.34,0,0,1,1.34-1.34h23.16a1.34,1.34,0,0,1,1.35,1.34h0A1.35,1.35,0,0,1,892.31,278.64Z" transform="translate(-578.8 -179)"/><path class="cls-6" d="M870.29,278.64h-1.14a1.35,1.35,0,0,1-1.34-1.35h0a1.34,1.34,0,0,1,1.34-1.34h1.14a1.34,1.34,0,0,1,1.34,1.34h0A1.35,1.35,0,0,1,870.29,278.64Z" transform="translate(-578.8 -179)"/><path class="cls-5" d="M853.55,251l.19-1.87h1.92v.44h-1.52l-.11,1,.26-.11a1.32,1.32,0,0,1,.37-.05,1.14,1.14,0,0,1,.46.09.9.9,0,0,1,.35.25,1.11,1.11,0,0,1,.22.4,1.42,1.42,0,0,1,.08.52,1.59,1.59,0,0,1-.07.5,1.07,1.07,0,0,1-.22.39,1,1,0,0,1-.37.26,1.41,1.41,0,0,1-1,0,1,1,0,0,1-.36-.19.89.89,0,0,1-.25-.32,1.3,1.3,0,0,1-.13-.46h.45a.78.78,0,0,0,.23.48.73.73,0,0,0,.49.17.67.67,0,0,0,.3-.06.66.66,0,0,0,.23-.17.87.87,0,0,0,.14-.27,1.37,1.37,0,0,0,0-.36,1.12,1.12,0,0,0,0-.32.79.79,0,0,0-.15-.27.84.84,0,0,0-.23-.18.84.84,0,0,0-.33-.06l-.2,0-.16,0-.13.08-.12.1Z" transform="translate(-578.8 -179)"/><path class="cls-5" d="M858.65,251.23a3.4,3.4,0,0,1-.08.78,1.51,1.51,0,0,1-.24.51.91.91,0,0,1-.37.28,1.3,1.3,0,0,1-.49.09,1.26,1.26,0,0,1-.49-.09.94.94,0,0,1-.38-.28,1.51,1.51,0,0,1-.24-.51,3.4,3.4,0,0,1-.08-.78v-.57a3.25,3.25,0,0,1,.08-.77,1.51,1.51,0,0,1,.24-.51,1,1,0,0,1,.37-.27,1.53,1.53,0,0,1,.49-.08,1.48,1.48,0,0,1,.49.08,1,1,0,0,1,.38.27,1.51,1.51,0,0,1,.24.51,3.25,3.25,0,0,1,.08.77Zm-.48-.65a2.83,2.83,0,0,0,0-.54,1,1,0,0,0-.14-.36.53.53,0,0,0-.22-.2.75.75,0,0,0-.31-.06.73.73,0,0,0-.3.06.53.53,0,0,0-.22.2,1,1,0,0,0-.14.36,2.76,2.76,0,0,0,0,.54v.73a2.76,2.76,0,0,0,0,.54,1.14,1.14,0,0,0,.14.37.62.62,0,0,0,.22.21.74.74,0,0,0,.31.07.7.7,0,0,0,.3-.07.55.55,0,0,0,.22-.21,1.14,1.14,0,0,0,.14-.37,2.83,2.83,0,0,0,0-.54Z" transform="translate(-578.8 -179)"/><path class="cls-5" d="M859.22,249.8a1,1,0,0,1,0-.3,1,1,0,0,1,.15-.24.62.62,0,0,1,.25-.17A.79.79,0,0,1,860,249a.83.83,0,0,1,.32.06.53.53,0,0,1,.24.17.61.61,0,0,1,.15.24.8.8,0,0,1,.06.3v.2a.77.77,0,0,1-.06.3.73.73,0,0,1-.39.41.88.88,0,0,1-.64,0,.74.74,0,0,1-.25-.17,1,1,0,0,1-.15-.24,1,1,0,0,1,0-.3Zm.35.2a.47.47,0,0,0,0,.17.36.36,0,0,0,.08.15.32.32,0,0,0,.13.1.42.42,0,0,0,.36,0,.32.32,0,0,0,.13-.1.35.35,0,0,0,.07-.15.47.47,0,0,0,0-.17v-.2a.47.47,0,0,0,0-.17.35.35,0,0,0-.07-.15.41.41,0,0,0-.13-.1.34.34,0,0,0-.18,0,.38.38,0,0,0-.19,0,.29.29,0,0,0-.12.1.36.36,0,0,0-.08.15.47.47,0,0,0,0,.17Zm.53,2.55-.27-.17,1.83-2.93.27.17Zm.95-.64a.71.71,0,0,1,.05-.29.7.7,0,0,1,.15-.25.81.81,0,0,1,.24-.17.88.88,0,0,1,.33-.06.83.83,0,0,1,.32.06.7.7,0,0,1,.24.17.58.58,0,0,1,.15.25.72.72,0,0,1,.06.29v.21a.8.8,0,0,1-.06.3.61.61,0,0,1-.15.24.7.7,0,0,1-.24.17.88.88,0,0,1-.64,0,.74.74,0,0,1-.25-.17.75.75,0,0,1-.15-.24.79.79,0,0,1-.05-.3Zm.35.21a.51.51,0,0,0,0,.17.44.44,0,0,0,.08.15.27.27,0,0,0,.13.1.42.42,0,0,0,.36,0,.35.35,0,0,0,.2-.25.51.51,0,0,0,0-.17v-.21a.51.51,0,0,0,0-.17.41.41,0,0,0-.07-.15l-.13-.1a.45.45,0,0,0-.37,0,.4.4,0,0,0-.12.1.44.44,0,0,0-.08.15.51.51,0,0,0,0,.17Z" transform="translate(-578.8 -179)"/><path class="cls-5" d="M855.6,262.7a.84.84,0,0,1-.14.5,1.13,1.13,0,0,1-.4.35,1.35,1.35,0,0,1,.26.15,1,1,0,0,1,.2.21,1.05,1.05,0,0,1,.13.26.92.92,0,0,1,0,.29,1.08,1.08,0,0,1-.09.46,1,1,0,0,1-.25.33,1.28,1.28,0,0,1-.38.21,1.45,1.45,0,0,1-.47.07,1.41,1.41,0,0,1-.47-.07,1.07,1.07,0,0,1-.38-.21.9.9,0,0,1-.25-.33,1,1,0,0,1-.1-.46.93.93,0,0,1,.05-.29,1,1,0,0,1,.12-.26,1,1,0,0,1,.2-.21,1.13,1.13,0,0,1,.26-.16.94.94,0,0,1-.54-.84,1.23,1.23,0,0,1,.08-.44,1.24,1.24,0,0,1,.23-.32,1.1,1.1,0,0,1,.35-.2,1.33,1.33,0,0,1,.45-.07,1.27,1.27,0,0,1,.44.07,1,1,0,0,1,.35.2.9.9,0,0,1,.23.32A1,1,0,0,1,855.6,262.7Zm-.38,1.75a.72.72,0,0,0-.06-.29.54.54,0,0,0-.15-.22.86.86,0,0,0-.22-.15.94.94,0,0,0-.3-.05.88.88,0,0,0-.29.05.91.91,0,0,0-.23.15.64.64,0,0,0-.14.22.93.93,0,0,0-.05.29.84.84,0,0,0,.05.29.55.55,0,0,0,.14.22.58.58,0,0,0,.23.13.92.92,0,0,0,.6,0A.61.61,0,0,0,855,265a.55.55,0,0,0,.14-.22A.65.65,0,0,0,855.22,264.45Zm-.09-1.74a.75.75,0,0,0,0-.26.46.46,0,0,0-.13-.2.48.48,0,0,0-.2-.14.66.66,0,0,0-.25-.05.75.75,0,0,0-.26.05.63.63,0,0,0-.2.13.58.58,0,0,0-.13.2.77.77,0,0,0,0,.27.71.71,0,0,0,0,.26.74.74,0,0,0,.13.21.67.67,0,0,0,.2.12.71.71,0,0,0,.26.05.75.75,0,0,0,.26-.05.62.62,0,0,0,.19-.12.57.57,0,0,0,.13-.21A.71.71,0,0,0,855.13,262.71Z" transform="translate(-578.8 -179)"/><path class="cls-5" d="M858.65,263.88a3.37,3.37,0,0,1-.08.77,1.51,1.51,0,0,1-.24.51.83.83,0,0,1-.37.28,1.3,1.3,0,0,1-.49.09,1.26,1.26,0,0,1-.49-.09.86.86,0,0,1-.38-.28,1.51,1.51,0,0,1-.24-.51,3.37,3.37,0,0,1-.08-.77v-.58a3.37,3.37,0,0,1,.08-.77,1.37,1.37,0,0,1,.24-.5.91.91,0,0,1,.37-.28,1.53,1.53,0,0,1,.49-.08,1.48,1.48,0,0,1,.49.08.94.94,0,0,1,.38.28,1.37,1.37,0,0,1,.24.5,3.37,3.37,0,0,1,.08.77Zm-.48-.66a2.83,2.83,0,0,0,0-.54,1.18,1.18,0,0,0-.14-.36.6.6,0,0,0-.22-.2.75.75,0,0,0-.31-.06.73.73,0,0,0-.3.06.6.6,0,0,0-.22.2,1.18,1.18,0,0,0-.14.36,2.76,2.76,0,0,0,0,.54V264a2.76,2.76,0,0,0,0,.54,1.14,1.14,0,0,0,.14.37.49.49,0,0,0,.22.21.62.62,0,0,0,.31.07.58.58,0,0,0,.3-.07.49.49,0,0,0,.22-.21,1.14,1.14,0,0,0,.14-.37,2.83,2.83,0,0,0,0-.54Z" transform="translate(-578.8 -179)"/><path class="cls-5" d="M859.22,262.44a1,1,0,0,1,0-.3,1,1,0,0,1,.15-.24.74.74,0,0,1,.25-.17.79.79,0,0,1,.32-.06.83.83,0,0,1,.32.06.73.73,0,0,1,.39.41.8.8,0,0,1,.06.3v.2a.73.73,0,0,1-.06.3.64.64,0,0,1-.15.25.6.6,0,0,1-.24.16.88.88,0,0,1-.64,0,.72.72,0,0,1-.25-.16,1,1,0,0,1-.15-.25.94.94,0,0,1,0-.3Zm.35.2a.57.57,0,0,0,0,.18.39.39,0,0,0,.08.14.28.28,0,0,0,.13.11.55.55,0,0,0,.36,0,.35.35,0,0,0,.13-.11.37.37,0,0,0,.07-.14.57.57,0,0,0,0-.18v-.2a.51.51,0,0,0,0-.17.35.35,0,0,0-.07-.15.41.41,0,0,0-.13-.1.37.37,0,0,0-.18,0,.38.38,0,0,0-.19,0,.29.29,0,0,0-.12.1.36.36,0,0,0-.08.15.51.51,0,0,0,0,.17Zm.53,2.55-.27-.17,1.83-2.93.27.17Zm.95-.63a.73.73,0,0,1,.05-.3.7.7,0,0,1,.15-.25,1,1,0,0,1,.24-.17.88.88,0,0,1,.33-.06.83.83,0,0,1,.32.06.86.86,0,0,1,.24.17.58.58,0,0,1,.15.25.73.73,0,0,1,.06.3v.2a.8.8,0,0,1-.06.3.61.61,0,0,1-.15.24.7.7,0,0,1-.24.17.88.88,0,0,1-.64,0,.74.74,0,0,1-.25-.17.75.75,0,0,1-.15-.24.79.79,0,0,1-.05-.3Zm.35.2a.47.47,0,0,0,0,.17.36.36,0,0,0,.08.15.27.27,0,0,0,.13.1.42.42,0,0,0,.36,0,.41.41,0,0,0,.13-.1.35.35,0,0,0,.07-.15.47.47,0,0,0,0-.17v-.2a.57.57,0,0,0,0-.18.37.37,0,0,0-.07-.14.45.45,0,0,0-.13-.11.45.45,0,0,0-.37,0,.32.32,0,0,0-.12.11.39.39,0,0,0-.08.14.57.57,0,0,0,0,.18Z" transform="translate(-578.8 -179)"/><path class="cls-5" d="M855.79,278.81h-2.46v-.34l1.23-1.37.28-.33.18-.27a1.28,1.28,0,0,0,.09-.22.76.76,0,0,0,0-.21.71.71,0,0,0,0-.26.54.54,0,0,0-.13-.22.6.6,0,0,0-.2-.14.61.61,0,0,0-.28-.05,1.14,1.14,0,0,0-.33.05.63.63,0,0,0-.23.16.72.72,0,0,0-.14.24,1.06,1.06,0,0,0,0,.31h-.48a1.38,1.38,0,0,1,.08-.45,1,1,0,0,1,.24-.36,1,1,0,0,1,.38-.25,1.47,1.47,0,0,1,1,0,.92.92,0,0,1,.35.2.9.9,0,0,1,.23.32,1.07,1.07,0,0,1,.07.41,1,1,0,0,1-.05.33,2.07,2.07,0,0,1-.15.34,3.29,3.29,0,0,1-.23.33,3.82,3.82,0,0,1-.27.32l-1,1.09h1.89Z" transform="translate(-578.8 -179)"/><path class="cls-5" d="M858.31,277.55h.52v.39h-.52v.87h-.48v-.87h-1.71v-.28l1.68-2.6h.51Zm-1.65,0h1.17v-1.84l-.06.1Z" transform="translate(-578.8 -179)"/><path class="cls-5" d="M859.22,275.78a.94.94,0,0,1,0-.3.87.87,0,0,1,.15-.25.92.92,0,0,1,.25-.17A.79.79,0,0,1,860,275a.83.83,0,0,1,.32.06.74.74,0,0,1,.24.17.58.58,0,0,1,.15.25.73.73,0,0,1,.06.3v.2a.8.8,0,0,1-.06.3.73.73,0,0,1-.39.41.88.88,0,0,1-.64,0,.74.74,0,0,1-.25-.17,1,1,0,0,1-.15-.24,1,1,0,0,1,0-.3Zm.35.2a.51.51,0,0,0,0,.17.44.44,0,0,0,.08.15.45.45,0,0,0,.13.1.42.42,0,0,0,.36,0,.45.45,0,0,0,.13-.1.35.35,0,0,0,.07-.15.47.47,0,0,0,0-.17v-.2a.57.57,0,0,0,0-.18.37.37,0,0,0-.07-.14.45.45,0,0,0-.13-.11.48.48,0,0,0-.18,0,.53.53,0,0,0-.19,0,.32.32,0,0,0-.12.11.39.39,0,0,0-.08.14.57.57,0,0,0,0,.18Zm.53,2.55-.27-.17,1.83-2.94.27.17Zm.95-.64a.79.79,0,0,1,.05-.3.75.75,0,0,1,.15-.24.81.81,0,0,1,.24-.17.88.88,0,0,1,.33-.06.83.83,0,0,1,.32.06.7.7,0,0,1,.24.17.61.61,0,0,1,.15.24.8.8,0,0,1,.06.3v.2a.73.73,0,0,1-.06.3.58.58,0,0,1-.15.25.67.67,0,0,1-.24.16.77.77,0,0,1-.64,0,.72.72,0,0,1-.25-.16.7.7,0,0,1-.15-.25.73.73,0,0,1-.05-.3Zm.35.2a.57.57,0,0,0,0,.18.39.39,0,0,0,.08.14.28.28,0,0,0,.13.11.42.42,0,0,0,.36,0,.45.45,0,0,0,.13-.11.37.37,0,0,0,.07-.14.57.57,0,0,0,0-.18v-.2a.47.47,0,0,0,0-.17.35.35,0,0,0-.07-.15.41.41,0,0,0-.13-.1.39.39,0,0,0-.18,0,.41.41,0,0,0-.19,0,.29.29,0,0,0-.12.1.36.36,0,0,0-.08.15.47.47,0,0,0,0,.17Z" transform="translate(-578.8 -179)"/><path class="cls-5" d="M947.83,252.15H924.66a1.34,1.34,0,0,1-1.34-1.34h0a1.34,1.34,0,0,1,1.34-1.35h23.17a1.34,1.34,0,0,1,1.34,1.35h0A1.34,1.34,0,0,1,947.83,252.15Z" transform="translate(-578.8 -179)"/><path class="cls-5" d="M947.83,264.77H924.66a1.35,1.35,0,0,1-1.34-1.35h0a1.34,1.34,0,0,1,1.34-1.34h23.17a1.34,1.34,0,0,1,1.34,1.34h0A1.35,1.35,0,0,1,947.83,264.77Z" transform="translate(-578.8 -179)"/><path class="cls-6" d="M947.17,264.77H924.66a1.35,1.35,0,0,1-1.34-1.35h0a1.34,1.34,0,0,1,1.34-1.34h22.51a1.34,1.34,0,0,1,1.34,1.34h0A1.35,1.35,0,0,1,947.17,264.77Z" transform="translate(-578.8 -179)"/><path class="cls-5" d="M947.83,278.64H924.66a1.35,1.35,0,0,1-1.34-1.35h0a1.34,1.34,0,0,1,1.34-1.34h23.17a1.34,1.34,0,0,1,1.34,1.34h0A1.35,1.35,0,0,1,947.83,278.64Z" transform="translate(-578.8 -179)"/><rect class="cls-6" x="344.52" y="96.95" width="7" height="2.69" rx="1.34"/><path class="cls-5" d="M911.19,251.23a2.92,2.92,0,0,1-.08.78,1.34,1.34,0,0,1-.24.51.85.85,0,0,1-.37.28,1.26,1.26,0,0,1-.49.09,1.3,1.3,0,0,1-.49-.09.91.91,0,0,1-.37-.28,1.21,1.21,0,0,1-.24-.51,2.88,2.88,0,0,1-.09-.78v-.57a2.76,2.76,0,0,1,.09-.77,1.34,1.34,0,0,1,.23-.51,1,1,0,0,1,.38-.27A1.48,1.48,0,0,1,910,249a1.53,1.53,0,0,1,.49.08,1,1,0,0,1,.37.27,1.34,1.34,0,0,1,.24.51,2.8,2.8,0,0,1,.08.77Zm-.47-.65a2.76,2.76,0,0,0-.05-.54.85.85,0,0,0-.14-.36.53.53,0,0,0-.22-.2.73.73,0,0,0-.3-.06.75.75,0,0,0-.31.06.53.53,0,0,0-.22.2,1,1,0,0,0-.13.36,2.16,2.16,0,0,0-.05.54v.73a2.16,2.16,0,0,0,.05.54,1.15,1.15,0,0,0,.13.37.58.58,0,0,0,.23.21.73.73,0,0,0,.3.07.74.74,0,0,0,.31-.07.55.55,0,0,0,.22-.21,1.15,1.15,0,0,0,.13-.37,2.76,2.76,0,0,0,.05-.54Z" transform="translate(-578.8 -179)"/><path class="cls-5" d="M911.76,249.8a.8.8,0,0,1,.06-.3.61.61,0,0,1,.15-.24.53.53,0,0,1,.24-.17.83.83,0,0,1,.32-.06.79.79,0,0,1,.32.06.62.62,0,0,1,.25.17,1,1,0,0,1,.15.24,1,1,0,0,1,0,.3v.2a1,1,0,0,1,0,.3,1,1,0,0,1-.15.24.81.81,0,0,1-.24.17.87.87,0,0,1-.32.06.88.88,0,0,1-.33-.06.81.81,0,0,1-.24-.17.61.61,0,0,1-.15-.24.77.77,0,0,1-.06-.3Zm.36.2a.88.88,0,0,0,0,.17.53.53,0,0,0,.08.15.41.41,0,0,0,.13.1.38.38,0,0,0,.19,0,.39.39,0,0,0,.18,0,.29.29,0,0,0,.12-.1.36.36,0,0,0,.08-.15.47.47,0,0,0,0-.17v-.2a.88.88,0,0,0,0-.17.36.36,0,0,0-.08-.15.27.27,0,0,0-.13-.1.42.42,0,0,0-.36,0,.32.32,0,0,0-.13.1.53.53,0,0,0-.08.15.88.88,0,0,0,0,.17Zm.52,2.55-.27-.17,1.84-2.93.27.17Zm1-.64a.93.93,0,0,1,0-.29.72.72,0,0,1,.16-.25.61.61,0,0,1,.24-.17.88.88,0,0,1,.64,0,.74.74,0,0,1,.25.17.87.87,0,0,1,.15.25.93.93,0,0,1,0,.29v.21a1,1,0,0,1,0,.3,1,1,0,0,1-.15.24.74.74,0,0,1-.25.17.79.79,0,0,1-.32.06.83.83,0,0,1-.32-.06.7.7,0,0,1-.24-.17.78.78,0,0,1-.16-.24,1,1,0,0,1,0-.3Zm.36.21a1,1,0,0,0,0,.17.71.71,0,0,0,.08.15.32.32,0,0,0,.13.1.34.34,0,0,0,.18,0,.41.41,0,0,0,.19,0,.29.29,0,0,0,.12-.1.44.44,0,0,0,.08-.15,1,1,0,0,0,0-.17v-.21a1,1,0,0,0,0-.17.71.71,0,0,0-.08-.15.45.45,0,0,0-.13-.1.42.42,0,0,0-.36,0,.45.45,0,0,0-.13.1.71.71,0,0,0-.08.15,1,1,0,0,0,0,.17Z" transform="translate(-578.8 -179)"/><path class="cls-5" d="M909.36,265.08A1.67,1.67,0,0,0,910,265a1,1,0,0,0,.39-.28.9.9,0,0,0,.21-.4,2.32,2.32,0,0,0,.07-.46,1.09,1.09,0,0,1-.36.28,1,1,0,0,1-.46.11,1.06,1.06,0,0,1-.48-.11,1.12,1.12,0,0,1-.33-.28,1.18,1.18,0,0,1-.19-.41,1.41,1.41,0,0,1-.07-.45,1.7,1.7,0,0,1,.08-.51,1.25,1.25,0,0,1,.22-.41,1.09,1.09,0,0,1,.36-.28,1.19,1.19,0,0,1,.51-.1,1.09,1.09,0,0,1,.55.13,1.2,1.2,0,0,1,.37.34,2,2,0,0,1,.21.49,2.6,2.6,0,0,1,.07.56v.17a4.19,4.19,0,0,1,0,.5,3.86,3.86,0,0,1-.09.49,2.44,2.44,0,0,1-.19.44,1.22,1.22,0,0,1-.32.36,1.72,1.72,0,0,1-.49.24,2.22,2.22,0,0,1-.67.09h-.05v-.4Zm.57-1.25a1,1,0,0,0,.24,0,.78.78,0,0,0,.2-.11.93.93,0,0,0,.18-.16.82.82,0,0,0,.12-.2v-.2a1.53,1.53,0,0,0-.06-.45,1,1,0,0,0-.16-.33.62.62,0,0,0-.23-.2.54.54,0,0,0-.27-.07.73.73,0,0,0-.3.06.79.79,0,0,0-.22.19,1,1,0,0,0-.13.28,1.21,1.21,0,0,0,0,.34,1.75,1.75,0,0,0,0,.33.8.8,0,0,0,.13.28.57.57,0,0,0,.21.2A.61.61,0,0,0,909.93,263.83Z" transform="translate(-578.8 -179)"/><path class="cls-5" d="M914.08,262.7a.84.84,0,0,1-.15.5,1,1,0,0,1-.4.35,1.1,1.1,0,0,1,.26.15,1,1,0,0,1,.33.47.93.93,0,0,1,0,.29,1.08,1.08,0,0,1-.09.46.93.93,0,0,1-.26.33,1.12,1.12,0,0,1-.37.21,1.51,1.51,0,0,1-.48.07,1.49,1.49,0,0,1-.47-.07,1.28,1.28,0,0,1-.38-.21,1,1,0,0,1-.25-.33,1.08,1.08,0,0,1-.09-.46.92.92,0,0,1,0-.29,1.05,1.05,0,0,1,.13-.26.8.8,0,0,1,.2-.21.27.27,0,1,0-.14-.5.94.94,0,0,1-.14-.5,1.23,1.23,0,0,1,.08-.44,1,1,0,0,1,.23-.32,1.1,1.1,0,0,1,.35-.2,1.27,1.27,0,0,1,.44-.07,1.33,1.33,0,0,1,.45.07,1.1,1.1,0,0,1,.35.2,1,1,0,0,1,.23.32A1.23,1.23,0,0,1,914.08,262.7Zm-.39,1.75a.93.93,0,0,0-.05-.29.86.86,0,0,0-.15-.22.76.76,0,0,0-.23-.15.88.88,0,0,0-.29-.05.84.84,0,0,0-.29.05.76.76,0,0,0-.23.15.64.64,0,0,0-.14.22.71.71,0,0,0,0,.29.65.65,0,0,0,0,.29.55.55,0,0,0,.14.22.54.54,0,0,0,.22.13.92.92,0,0,0,.6,0,.58.58,0,0,0,.23-.13.55.55,0,0,0,.14-.22A.84.84,0,0,0,913.69,264.45Zm-.09-1.74a.75.75,0,0,0,0-.26.46.46,0,0,0-.13-.2.56.56,0,0,0-.2-.14.71.71,0,0,0-.26-.05.7.7,0,0,0-.25.05.57.57,0,0,0-.33.33.77.77,0,0,0,0,.27.71.71,0,0,0,0,.26.57.57,0,0,0,.13.21.56.56,0,0,0,.2.12.66.66,0,0,0,.25.05.71.71,0,0,0,.26-.05.56.56,0,0,0,.2-.12.57.57,0,0,0,.13-.21A.71.71,0,0,0,913.6,262.71Z" transform="translate(-578.8 -179)"/><path class="cls-5" d="M914.73,262.44a1,1,0,0,1,0-.3,1,1,0,0,1,.15-.24.74.74,0,0,1,.25-.17.88.88,0,0,1,.64,0,.73.73,0,0,1,.39.41.8.8,0,0,1,.06.3v.2a.73.73,0,0,1-.06.3.64.64,0,0,1-.15.25.6.6,0,0,1-.24.16.88.88,0,0,1-.64,0,.72.72,0,0,1-.25-.16,1,1,0,0,1-.15-.25.94.94,0,0,1,0-.3Zm.35.2a.57.57,0,0,0,0,.18.39.39,0,0,0,.08.14.28.28,0,0,0,.13.11.55.55,0,0,0,.36,0,.35.35,0,0,0,.13-.11.37.37,0,0,0,.07-.14.57.57,0,0,0,0-.18v-.2a.51.51,0,0,0,0-.17.35.35,0,0,0-.07-.15.41.41,0,0,0-.13-.1.34.34,0,0,0-.18,0,.41.41,0,0,0-.19,0,.29.29,0,0,0-.12.1.36.36,0,0,0-.08.15.51.51,0,0,0,0,.17Zm.53,2.55-.27-.17,1.83-2.93.27.17Zm.95-.63a.73.73,0,0,1,.05-.3.7.7,0,0,1,.15-.25,1,1,0,0,1,.24-.17.88.88,0,0,1,.33-.06.83.83,0,0,1,.32.06.86.86,0,0,1,.24.17.58.58,0,0,1,.15.25.73.73,0,0,1,.06.3v.2a.8.8,0,0,1-.06.3.61.61,0,0,1-.15.24.7.7,0,0,1-.24.17.88.88,0,0,1-.64,0,.74.74,0,0,1-.25-.17.75.75,0,0,1-.15-.24.79.79,0,0,1-.05-.3Zm.35.2a.47.47,0,0,0,0,.17.36.36,0,0,0,.08.15.27.27,0,0,0,.13.1.42.42,0,0,0,.36,0,.32.32,0,0,0,.13-.1.35.35,0,0,0,.07-.15.47.47,0,0,0,0-.17v-.2a.57.57,0,0,0,0-.18.37.37,0,0,0-.07-.14.45.45,0,0,0-.13-.11.45.45,0,0,0-.37,0,.32.32,0,0,0-.12.11.39.39,0,0,0-.08.14.57.57,0,0,0,0,.18Z" transform="translate(-578.8 -179)"/><path class="cls-5" d="M910.41,278.81h-.48v-3.18l-1,.36v-.44l1.37-.51h.08Z" transform="translate(-578.8 -179)"/><path class="cls-5" d="M913.67,275.05v.41h0a1.44,1.44,0,0,0-.58.1,1.15,1.15,0,0,0-.4.28,1.09,1.09,0,0,0-.23.39,1.46,1.46,0,0,0-.1.46.83.83,0,0,1,.36-.26,1.33,1.33,0,0,1,.45-.08,1,1,0,0,1,.48.11.83.83,0,0,1,.33.28,1,1,0,0,1,.2.39,1.76,1.76,0,0,1,.06.46,1.63,1.63,0,0,1-.07.5,1.29,1.29,0,0,1-.22.4.91.91,0,0,1-.37.27,1.26,1.26,0,0,1-1,0,1.35,1.35,0,0,1-.38-.33,1.58,1.58,0,0,1-.23-.47,1.81,1.81,0,0,1-.07-.52v-.22a4.71,4.71,0,0,1,0-.53,2.78,2.78,0,0,1,.11-.5,2.58,2.58,0,0,1,.22-.44,1.37,1.37,0,0,1,.33-.35,1.39,1.39,0,0,1,.47-.24,2.11,2.11,0,0,1,.64-.09Zm-.62,1.7a.69.69,0,0,0-.25,0,.71.71,0,0,0-.21.11.85.85,0,0,0-.17.16.56.56,0,0,0-.11.2v.18a1.46,1.46,0,0,0,.06.44.87.87,0,0,0,.16.32.64.64,0,0,0,.24.2.5.5,0,0,0,.27.07.65.65,0,0,0,.29-.06.79.79,0,0,0,.22-.18.87.87,0,0,0,.14-.27,1.29,1.29,0,0,0,0-.35,1.12,1.12,0,0,0,0-.32.8.8,0,0,0-.13-.28.64.64,0,0,0-.21-.19A.6.6,0,0,0,913.05,276.75Z" transform="translate(-578.8 -179)"/><path class="cls-5" d="M914.73,275.78a.73.73,0,0,1,0-.3.58.58,0,0,1,.15-.25,1,1,0,0,1,.24-.17.87.87,0,0,1,.32-.06.88.88,0,0,1,.33.06,1,1,0,0,1,.24.17.7.7,0,0,1,.15.25.94.94,0,0,1,0,.3v.2a.79.79,0,0,1,0,.3.61.61,0,0,1-.15.24.81.81,0,0,1-.24.17.88.88,0,0,1-.64,0,.74.74,0,0,1-.25-.17.61.61,0,0,1-.15-.24.79.79,0,0,1,0-.3Zm.35.2a.51.51,0,0,0,0,.17.41.41,0,0,0,.07.15l.13.1a.41.41,0,0,0,.19,0,.34.34,0,0,0,.18,0l.13-.1a.35.35,0,0,0,.07-.15.47.47,0,0,0,0-.17v-.2a.57.57,0,0,0,0-.18.39.39,0,0,0-.08-.14.32.32,0,0,0-.12-.11.58.58,0,0,0-.19,0,.48.48,0,0,0-.18,0,.45.45,0,0,0-.13.11.37.37,0,0,0-.07.14.57.57,0,0,0,0,.18Zm.53,2.55-.27-.17,1.83-2.94.27.17Zm.94-.64a.8.8,0,0,1,.06-.3.61.61,0,0,1,.15-.24.81.81,0,0,1,.24-.17.83.83,0,0,1,.32-.06.88.88,0,0,1,.33.06.81.81,0,0,1,.24.17.75.75,0,0,1,.15.24.79.79,0,0,1,.05.3v.2a.73.73,0,0,1-.05.3.7.7,0,0,1-.15.25.78.78,0,0,1-.24.16.68.68,0,0,1-.32.07.72.72,0,0,1-.33-.07.78.78,0,0,1-.24-.16.58.58,0,0,1-.15-.25.73.73,0,0,1-.06-.3Zm.36.2a.57.57,0,0,0,0,.18.37.37,0,0,0,.07.14.45.45,0,0,0,.13.11.58.58,0,0,0,.19,0,.48.48,0,0,0,.18,0,.45.45,0,0,0,.13-.11.61.61,0,0,0,.07-.14.57.57,0,0,0,0-.18v-.2a.47.47,0,0,0,0-.17.36.36,0,0,0-.08-.15.27.27,0,0,0-.13-.1.42.42,0,0,0-.36,0,.41.41,0,0,0-.13.1.35.35,0,0,0-.07.15.47.47,0,0,0,0,.17Z" transform="translate(-578.8 -179)"/><path class="cls-11" d="M712.28,336.62H695.72a.33.33,0,1,1,0-.66h16.56a.33.33,0,1,1,0,.66Z" transform="translate(-578.8 -179)"/><path class="cls-11" d="M707.93,340.51H695.72a.33.33,0,1,1,0-.66h12.21a.33.33,0,0,1,0,.66Z" transform="translate(-578.8 -179)"/><path class="cls-11" d="M701.82,344.4h-6.1a.33.33,0,1,1,0-.66h6.1a.33.33,0,1,1,0,.66Z" transform="translate(-578.8 -179)"/><path class="cls-11" d="M780.89,318.91H764.33a.33.33,0,0,1,0-.66h16.56a.33.33,0,0,1,0,.66Z" transform="translate(-578.8 -179)"/><path class="cls-11" d="M776.55,322.8H764.33a.33.33,0,1,1,0-.66h12.22a.33.33,0,1,1,0,.66Z" transform="translate(-578.8 -179)"/><path class="cls-11" d="M770.44,326.69h-6.11a.33.33,0,1,1,0-.66h6.11a.33.33,0,1,1,0,.66Z" transform="translate(-578.8 -179)"/><path class="cls-11" d="M734.2,320.22H722a.33.33,0,0,1-.33-.33.33.33,0,0,1,.33-.33H734.2a.33.33,0,0,1,.33.33A.33.33,0,0,1,734.2,320.22Z" transform="translate(-578.8 -179)"/><path class="cls-11" d="M728.09,324.11H722a.33.33,0,0,1,0-.66h6.1a.33.33,0,1,1,0,.66Z" transform="translate(-578.8 -179)"/><path class="cls-11" d="M698.59,323.84a.2.2,0,0,1-.14,0l-4.39-4.39a.2.2,0,0,1,.28-.28l4.39,4.39a.21.21,0,0,1,0,.28A.24.24,0,0,1,698.59,323.84Z" transform="translate(-578.8 -179)"/><path class="cls-11" d="M697.29,325.13a.19.19,0,0,1-.14-.05l-4.38-4.39a.19.19,0,0,1,0-.28.21.21,0,0,1,.28,0l4.38,4.39a.19.19,0,0,1,0,.28A.16.16,0,0,1,697.29,325.13Z" transform="translate(-578.8 -179)"/><path class="cls-11" d="M691.08,331.35a.2.2,0,0,1-.14-.06l-4.38-4.38a.2.2,0,0,1,.28-.28l4.38,4.38a.19.19,0,0,1,0,.28A.2.2,0,0,1,691.08,331.35Z" transform="translate(-578.8 -179)"/><path class="cls-11" d="M689.81,332.62a.2.2,0,0,1-.14-.06l-4.39-4.38a.21.21,0,0,1,0-.28.19.19,0,0,1,.28,0l4.39,4.38a.19.19,0,0,1,0,.28A.2.2,0,0,1,689.81,332.62Z" transform="translate(-578.8 -179)"/><path class="cls-11" d="M688.54,333.89a.2.2,0,0,1-.14-.05L684,329.45a.21.21,0,0,1,0-.28.19.19,0,0,1,.28,0l4.39,4.39a.21.21,0,0,1,0,.28A.24.24,0,0,1,688.54,333.89Z" transform="translate(-578.8 -179)"/><path class="cls-11" d="M687.26,335.17a.2.2,0,0,1-.14-.06l-4.38-4.39a.19.19,0,0,1,0-.28.21.21,0,0,1,.28,0l4.38,4.39a.19.19,0,0,1,0,.28A.2.2,0,0,1,687.26,335.17Z" transform="translate(-578.8 -179)"/><path class="cls-11" d="M680.69,341.74a.2.2,0,0,1-.14-.06l-4.39-4.38a.21.21,0,0,1,0-.28.19.19,0,0,1,.28,0l4.39,4.38a.19.19,0,0,1,0,.28A.2.2,0,0,1,680.69,341.74Z" transform="translate(-578.8 -179)"/><path class="cls-11" d="M679.23,343.2a.2.2,0,0,1-.14-.06l-4.38-4.39a.19.19,0,0,1,0-.28.21.21,0,0,1,.28,0l4.38,4.39a.19.19,0,0,1,0,.28A.17.17,0,0,1,679.23,343.2Z" transform="translate(-578.8 -179)"/><path class="cls-11" d="M686.6,337.78a23.4,23.4,0,0,1-6.14-1l-.41-.11a20.21,20.21,0,0,0-4.06-.84,6.54,6.54,0,0,0-4.26,1.06.2.2,0,0,1-.24-.32A6.9,6.9,0,0,1,676,335.4a19.89,19.89,0,0,1,4.14.85l.42.11a21.85,21.85,0,0,0,6.5,1,6.62,6.62,0,0,0,3.58-1c2.94-2,2.6-6.14,1.8-9.21q-.21-.81-.45-1.62a26.17,26.17,0,0,1-.94-4.07,7.84,7.84,0,0,1,1.23-5.7.19.19,0,0,1,.28,0,.2.2,0,0,1,0,.28,7.44,7.44,0,0,0-1.14,5.42,26.05,26.05,0,0,0,.92,4c.16.54.31,1.08.45,1.63.84,3.2,1.17,7.46-2,9.64a7,7,0,0,1-3.78,1.09Z" transform="translate(-578.8 -179)"/><path class="cls-11" d="M681.16,346.44a.21.21,0,0,1-.12,0,.2.2,0,0,1,0-.28,6.48,6.48,0,0,0,1-4.26,18.25,18.25,0,0,0-.74-3.73.2.2,0,0,1,.14-.25.2.2,0,0,1,.24.14,19,19,0,0,1,.76,3.81,6.92,6.92,0,0,1-1.13,4.53A.21.21,0,0,1,681.16,346.44Z" transform="translate(-578.8 -179)"/><path class="cls-11" d="M681.13,336.92a.19.19,0,0,1-.19-.15,20.82,20.82,0,0,1-.87-6,7,7,0,0,1,1.1-3.78c2.17-3.13,6.44-2.8,9.64-2l1.48.41a.2.2,0,0,1,.13.25.19.19,0,0,1-.24.13c-.49-.14-1-.28-1.47-.4-3.08-.8-7.17-1.14-9.22,1.8a6.71,6.71,0,0,0-1,3.58,20.54,20.54,0,0,0,.85,5.89.19.19,0,0,1-.14.24Z" transform="translate(-578.8 -179)"/><path class="cls-11" d="M697.69,326.87a11.77,11.77,0,0,1-1.3-.08,19.27,19.27,0,0,1-2.63-.54.21.21,0,0,1-.14-.24.2.2,0,0,1,.25-.14,18.25,18.25,0,0,0,2.57.52,7.45,7.45,0,0,0,5.42-1.15.2.2,0,1,1,.24.32A7.23,7.23,0,0,1,697.69,326.87Z" transform="translate(-578.8 -179)"/><path class="cls-11" d="M734.28,343.33h-8a.19.19,0,0,1-.17-.1l-4-6.94a.18.18,0,0,1,0-.2l4-6.94a.18.18,0,0,1,.17-.1h8a.19.19,0,0,1,.17.1l4,6.94a.23.23,0,0,1,0,.2l-4,6.94A.21.21,0,0,1,734.28,343.33Zm-7.91-.4h7.79l3.9-6.74-3.9-6.75h-7.79l-3.89,6.75Z" transform="translate(-578.8 -179)"/><path class="cls-11" d="M784.9,340.58h-8a.21.21,0,0,1-.18-.1l-4-6.94a.18.18,0,0,1,0-.2l4-6.95a.2.2,0,0,1,.18-.09h8a.19.19,0,0,1,.17.09l4,6.95a.18.18,0,0,1,0,.2l-4,6.94A.19.19,0,0,1,784.9,340.58Zm-7.9-.4h7.79l3.89-6.74-3.89-6.75H777l-3.89,6.75Z" transform="translate(-578.8 -179)"/><path class="cls-11" d="M746.44,336.39h-8a.21.21,0,0,1-.18-.1l-4-7a.17.17,0,0,1,0-.19l4-6.95a.21.21,0,0,1,.18-.1h8a.19.19,0,0,1,.17.1l4,6.95a.17.17,0,0,1,0,.19l-4,7A.19.19,0,0,1,746.44,336.39Zm-7.9-.4h7.79l3.89-6.74-3.89-6.75h-7.79l-3.89,6.75Z" transform="translate(-578.8 -179)"/><path class="cls-12" d="M771.15,309.41H673.36a2.68,2.68,0,0,1-2.68-2.68h0a2.67,2.67,0,0,1,2.68-2.67h97.79a2.67,2.67,0,0,1,2.67,2.67h0A2.68,2.68,0,0,1,771.15,309.41Z" transform="translate(-578.8 -179)"/><rect class="cls-8" x="250.99" y="118.14" width="150.87" height="65.38" rx="4"/><path class="cls-1" d="M936,309.41H838.16a2.67,2.67,0,0,1-2.67-2.68h0a2.66,2.66,0,0,1,2.67-2.67H936a2.67,2.67,0,0,1,2.68,2.67h0A2.68,2.68,0,0,1,936,309.41Z" transform="translate(-578.8 -179)"/><path class="cls-1" d="M969.6,309.41h-25a2.68,2.68,0,0,1-2.68-2.68h0a2.67,2.67,0,0,1,2.68-2.67h25a2.67,2.67,0,0,1,2.68,2.67h0A2.68,2.68,0,0,1,969.6,309.41Z" transform="translate(-578.8 -179)"/><rect class="cls-1" x="272.71" y="137.01" width="25.85" height="2.69" rx="1.34"/><path class="cls-1" d="M868.79,323H852.22a.33.33,0,0,1-.33-.33.33.33,0,0,1,.33-.33h16.57a.33.33,0,0,1,.33.33A.33.33,0,0,1,868.79,323Z" transform="translate(-578.8 -179)"/><path class="cls-1" d="M864.44,326.9H852.22a.33.33,0,0,1-.33-.33.33.33,0,0,1,.33-.33h12.22a.33.33,0,0,1,.33.33A.33.33,0,0,1,864.44,326.9Z" transform="translate(-578.8 -179)"/><path class="cls-1" d="M858.33,330.78h-6.11a.33.33,0,0,1-.33-.33.33.33,0,0,1,.33-.33h6.11a.33.33,0,0,1,.33.33A.33.33,0,0,1,858.33,330.78Z" transform="translate(-578.8 -179)"/><path class="cls-1" d="M846.63,327h-7.78a1.65,1.65,0,0,1-1.65-1.65v-7.78a1.65,1.65,0,0,1,1.65-1.65h7.78a1.65,1.65,0,0,1,1.65,1.65v7.78A1.65,1.65,0,0,1,846.63,327Zm-7.78-10.42a1,1,0,0,0-1,1v7.78a1,1,0,0,0,1,1h7.78a1,1,0,0,0,1-1v-7.78a1,1,0,0,0-1-1Z" transform="translate(-578.8 -179)"/><path class="cls-6" d="M844.34,323.38a.3.3,0,0,1-.23-.1l-3.2-3.19a.33.33,0,0,1,.47-.47l3.19,3.2a.32.32,0,0,1,0,.46A.3.3,0,0,1,844.34,323.38Z" transform="translate(-578.8 -179)"/><path class="cls-6" d="M841.15,323.38a.33.33,0,0,1-.24-.1.32.32,0,0,1,0-.46l3.2-3.2a.32.32,0,0,1,.46,0,.33.33,0,0,1,0,.47l-3.19,3.19A.32.32,0,0,1,841.15,323.38Z" transform="translate(-578.8 -179)"/><rect class="cls-1" x="319.92" y="159.76" width="25.85" height="2.69" rx="1.34"/><path class="cls-1" d="M916,345.76H899.43a.34.34,0,0,1,0-.67H916a.34.34,0,0,1,0,.67Z" transform="translate(-578.8 -179)"/><path class="cls-1" d="M911.64,349.64H899.43a.33.33,0,0,1-.33-.33.33.33,0,0,1,.33-.33h12.21a.33.33,0,0,1,.33.33A.32.32,0,0,1,911.64,349.64Z" transform="translate(-578.8 -179)"/><path class="cls-1" d="M905.54,353.53h-6.11a.33.33,0,0,1,0-.66h6.11a.33.33,0,0,1,0,.66Z" transform="translate(-578.8 -179)"/><path class="cls-1" d="M893.84,349.74h-7.78a1.65,1.65,0,0,1-1.65-1.65v-7.78a1.65,1.65,0,0,1,1.65-1.65h7.78a1.65,1.65,0,0,1,1.65,1.65v7.78A1.65,1.65,0,0,1,893.84,349.74Zm-7.78-10.42a1,1,0,0,0-1,1v7.78a1,1,0,0,0,1,1h7.78a1,1,0,0,0,1-1v-7.78a1,1,0,0,0-1-1Z" transform="translate(-578.8 -179)"/><path class="cls-6" d="M891.55,346.13a.33.33,0,0,1-.24-.1l-3.19-3.19a.33.33,0,0,1,.47-.47l3.19,3.2a.32.32,0,0,1,0,.46A.3.3,0,0,1,891.55,346.13Z" transform="translate(-578.8 -179)"/><path class="cls-6" d="M888.35,346.13a.3.3,0,0,1-.23-.1.32.32,0,0,1,0-.46l3.19-3.2a.33.33,0,0,1,.47.47L888.59,346A.33.33,0,0,1,888.35,346.13Z" transform="translate(-578.8 -179)"/><rect class="cls-1" x="367.63" y="159.21" width="25.85" height="2.69" rx="1.34"/><path class="cls-1" d="M963.7,345.2H947.14a.33.33,0,1,1,0-.66H963.7a.33.33,0,1,1,0,.66Z" transform="translate(-578.8 -179)"/><path class="cls-1" d="M959.35,349.09H947.14a.33.33,0,0,1-.33-.33.32.32,0,0,1,.33-.33h12.21a.33.33,0,0,1,.33.33A.33.33,0,0,1,959.35,349.09Z" transform="translate(-578.8 -179)"/><path class="cls-1" d="M953.24,353h-6.1a.33.33,0,0,1-.33-.33.32.32,0,0,1,.33-.33h6.1a.33.33,0,0,1,.33.33A.33.33,0,0,1,953.24,353Z" transform="translate(-578.8 -179)"/><path class="cls-1" d="M941.54,349.18h-7.77a1.65,1.65,0,0,1-1.66-1.65v-7.78a1.65,1.65,0,0,1,1.66-1.65h7.77a1.66,1.66,0,0,1,1.66,1.65v7.78A1.66,1.66,0,0,1,941.54,349.18Zm-7.77-10.42a1,1,0,0,0-1,1v7.78a1,1,0,0,0,1,1h7.77a1,1,0,0,0,1-1v-7.78a1,1,0,0,0-1-1Z" transform="translate(-578.8 -179)"/><path class="cls-6" d="M939.25,345.57a.33.33,0,0,1-.23-.09l-3.2-3.2a.33.33,0,0,1,.47-.47l3.2,3.2a.35.35,0,0,1,0,.47A.36.36,0,0,1,939.25,345.57Z" transform="translate(-578.8 -179)"/><path class="cls-6" d="M936.06,345.57a.36.36,0,0,1-.24-.09.35.35,0,0,1,0-.47l3.2-3.2a.33.33,0,1,1,.47.47l-3.2,3.2A.33.33,0,0,1,936.06,345.57Z" transform="translate(-578.8 -179)"/><rect class="cls-1" x="319.92" y="137.01" width="25.85" height="2.69" rx="1.34"/><path class="cls-1" d="M916,323H899.43a.33.33,0,0,1-.33-.33.33.33,0,0,1,.33-.33H916a.32.32,0,0,1,.33.33A.33.33,0,0,1,916,323Z" transform="translate(-578.8 -179)"/><path class="cls-1" d="M911.64,326.9H899.43a.33.33,0,0,1-.33-.33.33.33,0,0,1,.33-.33h12.21a.32.32,0,0,1,.33.33A.33.33,0,0,1,911.64,326.9Z" transform="translate(-578.8 -179)"/><path class="cls-1" d="M905.54,330.78h-6.11a.33.33,0,0,1-.33-.33.33.33,0,0,1,.33-.33h6.11a.33.33,0,0,1,.33.33A.33.33,0,0,1,905.54,330.78Z" transform="translate(-578.8 -179)"/><path class="cls-1" d="M893.84,327h-7.78a1.65,1.65,0,0,1-1.65-1.65v-7.78a1.65,1.65,0,0,1,1.65-1.65h7.78a1.65,1.65,0,0,1,1.65,1.65v7.78A1.65,1.65,0,0,1,893.84,327Zm-7.78-10.42a1,1,0,0,0-1,1v7.78a1,1,0,0,0,1,1h7.78a1,1,0,0,0,1-1v-7.78a1,1,0,0,0-1-1Z" transform="translate(-578.8 -179)"/><path class="cls-13" d="M889.44,323.38a.31.31,0,0,1-.21-.07.32.32,0,0,1-.05-.46l2.53-3.2a.33.33,0,0,1,.52.41l-2.53,3.2A.35.35,0,0,1,889.44,323.38Z" transform="translate(-578.8 -179)"/><path class="cls-13" d="M889.44,323.38a.32.32,0,0,1-.27-.14l-1.51-2.17a.33.33,0,0,1,.08-.46.34.34,0,0,1,.46.09l1.51,2.16a.34.34,0,0,1-.08.46A.35.35,0,0,1,889.44,323.38Z" transform="translate(-578.8 -179)"/><rect class="cls-1" x="367.63" y="137.01" width="25.85" height="2.69" rx="1.34"/><path class="cls-1" d="M963.7,323H947.14a.33.33,0,0,1-.33-.33.32.32,0,0,1,.33-.33H963.7a.33.33,0,0,1,.33.33A.33.33,0,0,1,963.7,323Z" transform="translate(-578.8 -179)"/><path class="cls-1" d="M959.35,326.9H947.14a.33.33,0,0,1-.33-.33.32.32,0,0,1,.33-.33h12.21a.33.33,0,0,1,.33.33A.33.33,0,0,1,959.35,326.9Z" transform="translate(-578.8 -179)"/><path class="cls-1" d="M953.24,330.78h-6.1a.32.32,0,0,1-.33-.33.33.33,0,0,1,.33-.33h6.1a.33.33,0,0,1,.33.33A.33.33,0,0,1,953.24,330.78Z" transform="translate(-578.8 -179)"/><path class="cls-1" d="M941.54,327h-7.77a1.65,1.65,0,0,1-1.66-1.65v-7.78a1.65,1.65,0,0,1,1.66-1.65h7.77a1.66,1.66,0,0,1,1.66,1.65v7.78A1.66,1.66,0,0,1,941.54,327Zm-7.77-10.42a1,1,0,0,0-1,1v7.78a1,1,0,0,0,1,1h7.77a1,1,0,0,0,1-1v-7.78a1,1,0,0,0-1-1Z" transform="translate(-578.8 -179)"/><path class="cls-13" d="M937.14,323.38a.31.31,0,0,1-.2-.07.32.32,0,0,1-.06-.46l2.54-3.2a.33.33,0,0,1,.51.41l-2.53,3.2A.34.34,0,0,1,937.14,323.38Z" transform="translate(-578.8 -179)"/><path class="cls-13" d="M937.14,323.38a.33.33,0,0,1-.27-.14l-1.51-2.17a.33.33,0,0,1,.55-.37l1.5,2.16a.32.32,0,0,1-.08.46A.33.33,0,0,1,937.14,323.38Z" transform="translate(-578.8 -179)"/><rect class="cls-1" x="272.71" y="160.34" width="25.85" height="2.69" rx="1.34"/><path class="cls-1" d="M868.79,346.33H852.22a.33.33,0,0,1-.33-.33.33.33,0,0,1,.33-.33h16.57a.33.33,0,0,1,.33.33A.33.33,0,0,1,868.79,346.33Z" transform="translate(-578.8 -179)"/><path class="cls-1" d="M864.44,350.22H852.22a.33.33,0,0,1,0-.66h12.22a.33.33,0,1,1,0,.66Z" transform="translate(-578.8 -179)"/><path class="cls-11" d="M858.33,354.11h-6.11a.33.33,0,0,1,0-.66h6.11a.33.33,0,1,1,0,.66Z" transform="translate(-578.8 -179)"/><path class="cls-11" d="M846.63,350.32h-7.78a1.65,1.65,0,0,1-1.65-1.65v-7.78a1.65,1.65,0,0,1,1.65-1.65h7.78a1.65,1.65,0,0,1,1.65,1.65v7.78A1.65,1.65,0,0,1,846.63,350.32Zm-7.78-10.42a1,1,0,0,0-1,1v7.78a1,1,0,0,0,1,1h7.78a1,1,0,0,0,1-1v-7.78a1,1,0,0,0-1-1Z" transform="translate(-578.8 -179)"/><path class="cls-11" d="M842.23,346.71a.44.44,0,0,1-.21-.07.34.34,0,0,1,0-.47L844.5,343a.33.33,0,1,1,.52.41l-2.53,3.19A.35.35,0,0,1,842.23,346.71Z" transform="translate(-578.8 -179)"/><path class="cls-11" d="M842.23,346.71a.33.33,0,0,1-.27-.14l-1.51-2.17a.33.33,0,0,1,.08-.46.32.32,0,0,1,.46.08l1.51,2.17a.33.33,0,0,1-.08.46A.35.35,0,0,1,842.23,346.71Z" transform="translate(-578.8 -179)"/><rect class="cls-1" x="95.48" y="207.47" width="9.65" height="37.46" rx="4.82"/><rect class="cls-11" x="95.48" y="226.82" width="9.65" height="18.11" rx="4.82"/><rect class="cls-1" x="112.47" y="207.47" width="9.65" height="37.46" rx="4.82"/><path class="cls-11" d="M696.1,423.93h0a4.83,4.83,0,0,1-4.83-4.83V396.58a4.83,4.83,0,0,1,4.83-4.83h0a4.82,4.82,0,0,1,4.82,4.83V419.1A4.82,4.82,0,0,1,696.1,423.93Z" transform="translate(-578.8 -179)"/><rect class="cls-1" x="129.47" y="207.47" width="9.65" height="37.46" rx="4.82"/><path class="cls-11" d="M713.09,423.93h0a4.82,4.82,0,0,1-4.82-4.83v-2.83a4.82,4.82,0,0,1,4.82-4.82h0a4.82,4.82,0,0,1,4.83,4.82v2.83A4.83,4.83,0,0,1,713.09,423.93Z" transform="translate(-578.8 -179)"/><rect class="cls-1" x="146.47" y="207.47" width="9.65" height="37.46" rx="4.82"/><path class="cls-11" d="M730.09,423.93h0a4.83,4.83,0,0,1-4.83-4.83V403.41a4.82,4.82,0,0,1,4.83-4.82h0a4.82,4.82,0,0,1,4.82,4.82V419.1A4.82,4.82,0,0,1,730.09,423.93Z" transform="translate(-578.8 -179)"/><rect class="cls-1" x="163.46" y="207.47" width="9.65" height="37.46" rx="4.82"/><rect class="cls-11" x="163.46" y="226.82" width="9.65" height="18.11" rx="4.82"/><rect class="cls-1" x="180.46" y="207.47" width="9.65" height="37.46" rx="4.82"/><rect class="cls-11" x="180.46" y="226.82" width="9.65" height="18.11" rx="4.82"/><rect class="cls-1" x="197.46" y="207.47" width="9.65" height="37.46" rx="4.82"/><path class="cls-11" d="M781.08,423.93h0a4.83,4.83,0,0,1-4.83-4.83V403.79a4.82,4.82,0,0,1,4.83-4.82h0a4.82,4.82,0,0,1,4.82,4.82V419.1A4.82,4.82,0,0,1,781.08,423.93Z" transform="translate(-578.8 -179)"/><rect class="cls-1" x="214.46" y="207.47" width="9.65" height="37.46" rx="4.82"/><path class="cls-11" d="M800.27,423.93h-4.39a2.63,2.63,0,0,1-2.63-2.63h0a2.63,2.63,0,0,1,2.63-2.63h4.39a2.63,2.63,0,0,1,2.63,2.63h0A2.63,2.63,0,0,1,800.27,423.93Z" transform="translate(-578.8 -179)"/><path class="cls-1" d="M871.9,422.59s5.11-8.94,11.72-8.94,13,4.61,13,4.61,5.51,2.7,8.11-.61,4.21-11.41,9.62-11.21,6.61,9,10.32,9.21c3.5.19,8-3.65,14.49-11.79a6.18,6.18,0,0,1,4.27-2.33h.07v21.06Z" transform="translate(-578.8 -179)"/><path class="cls-1" d="M884.11,376.6a10.11,10.11,0,1,0,10.11,10.1A10.1,10.1,0,0,0,884.11,376.6Zm0,15.64a5.54,5.54,0,1,1,5.54-5.54A5.55,5.55,0,0,1,884.11,392.24Z" transform="translate(-578.8 -179)"/><path class="cls-11" d="M883.78,394.07a2.24,2.24,0,0,0-1.48-2.14,5.52,5.52,0,0,1,0-10.45,2.26,2.26,0,0,0,1.48-2.14h0a2.28,2.28,0,0,0-3-2.17,10.1,10.1,0,0,0,0,19.06,2.28,2.28,0,0,0,3-2.16Z" transform="translate(-578.8 -179)"/><path class="cls-1" d="M907.82,376.16a10.11,10.11,0,1,0,10.1,10.11A10.11,10.11,0,0,0,907.82,376.16Zm0,15.65a5.54,5.54,0,1,1,5.53-5.54A5.55,5.55,0,0,1,907.82,391.81Z" transform="translate(-578.8 -179)"/><path class="cls-6" d="M902.62,384.37a5.56,5.56,0,0,1,3.35-3.32,2.27,2.27,0,0,0,1.52-2.14h0a2.28,2.28,0,0,0-3-2.17,10.12,10.12,0,0,0-6.16,6.09,2.28,2.28,0,0,0,2.16,3h0A2.26,2.26,0,0,0,902.62,384.37Z" transform="translate(-578.8 -179)"/><path class="cls-1" d="M931.82,376.6a10.11,10.11,0,1,0,10.1,10.1A10.11,10.11,0,0,0,931.82,376.6Zm0,15.64a5.54,5.54,0,1,1,5.53-5.54A5.54,5.54,0,0,1,931.82,392.24Z" transform="translate(-578.8 -179)"/><path class="cls-1" d="M647.88,290.85V245l-10.44,5.38c-1.07,1.35-.5,9.66-.5,9.66a10.75,10.75,0,0,1-8.29-5.56s-11.58,3.11-13.18,14.3a17.57,17.57,0,0,0,5.28,15c6.47,6.3,19.69,18.5,30.21,23.66V290.85Z" transform="translate(-578.8 -179)"/><path class="cls-14" d="M644.05,288.62a.31.31,0,0,1-.22-.09l-15.42-14.12a.33.33,0,0,1,.45-.49L644.27,288a.32.32,0,0,1,0,.47A.32.32,0,0,1,644.05,288.62Z" transform="translate(-578.8 -179)"/><path class="cls-15" d="M643.21,232.58a15.93,15.93,0,0,1,.39,3.75,11.33,11.33,0,0,0,.59,4,8.06,8.06,0,0,0,.61,1.42,1.66,1.66,0,0,1-1.3,2.42s1.54,7.54-2.7,7.48a9.78,9.78,0,0,1-3.13-.65l-.76,9.42s-7.42-1.64-8.43-5.36c0,0,2.54-7.77,1.42-11.78,0,0-4.42-1.65-2.77-3.94s4.36-.18,4.36-.18.48-4,2.77-3.84S642.5,236.53,643.21,232.58Z" transform="translate(-578.8 -179)"/><path class="cls-4" d="M632.47,227.19c-3.46.72-6.24,3.31-8.05,8,0,0-2.74,1.3-2.86,3.77s.21,8.65,8.6,7.53a7.6,7.6,0,0,0-.26-3.24,2.22,2.22,0,0,1-1.66-2.85c.72-2.23,3.25-1.27,3.25-1.27s.87-2.56,2-3.15c1.65-.84,5.47.45,7.09-.53a5.92,5.92,0,0,0,3-.32c1.22-.59,1.81-4.2.75-5.26a10.45,10.45,0,0,0-2.37-1.4A14.91,14.91,0,0,0,632.47,227.19Z" transform="translate(-578.8 -179)"/><path class="cls-4" d="M641.94,239.67c0,.4-.18.72-.41.72s-.41-.32-.41-.72.18-.72.41-.72S641.94,239.27,641.94,239.67Z" transform="translate(-578.8 -179)"/><path class="cls-4" d="M643.75,247.94h0a2.28,2.28,0,0,1-2.33-1.28.19.19,0,0,1,.13-.25.2.2,0,0,1,.25.12s.39,1,2,1a.2.2,0,1,1,0,.4Z" transform="translate(-578.8 -179)"/><path class="cls-4" d="M639.71,238.53l-.08,0a.2.2,0,0,1-.1-.26,2,2,0,0,1,2.1-1.05.19.19,0,0,1,.18.21.2.2,0,0,1-.22.18,1.61,1.61,0,0,0-1.7.82A.18.18,0,0,1,639.71,238.53Z" transform="translate(-578.8 -179)"/><path class="cls-3" d="M631.68,258.4l16.09,19.82V267.66l-10.45-12.41S637.43,259.63,631.68,258.4Z" transform="translate(-578.8 -179)"/><path class="cls-14" d="M631.07,271.15a.33.33,0,0,1-.18-.6l4.76-3.25a.33.33,0,0,1,.37.55l-4.76,3.24A.33.33,0,0,1,631.07,271.15Z" transform="translate(-578.8 -179)"/><polygon class="cls-3" points="50.27 172.05 55.74 170.87 58.61 173.43 61.21 201.88 59.31 212.56 49.36 214.78 47.38 195.4 50.27 172.05"/><path class="cls-15" d="M584.63,470.54l1-4.43,38.27-24.77-10.23-4.72-30.19,22.92-2.28.53v8.32A4.25,4.25,0,0,0,584.63,470.54Z" transform="translate(-578.8 -179)"/><path class="cls-15" d="M621.72,484.82l2-43.48h10.38l-5.85,41.07,3.77,3.45s-2.8,2.47-6,1.69A7.06,7.06,0,0,1,621.72,484.82Z" transform="translate(-578.8 -179)"/><path class="cls-3" d="M581.67,459.83,579.46,461a1.26,1.26,0,0,0-.66,1.23c.32,2.76,1.47,11.42,3.49,13.25.69.62,1.28,1.1,1.77,1.47a1,1,0,0,0,1.55-.9l-.71-6.7s-2.8-.57-3.23-1.75Z" transform="translate(-578.8 -179)"/><path class="cls-3" d="M621.75,484l-.14,2.65a1.39,1.39,0,0,0,1.16,1.43c3.15.5,11.55,1.73,14,.94h0a1,1,0,0,0-.19-1.76L631,484.94s-2.4,2.06-4.32,1.67A7.94,7.94,0,0,1,621.75,484Z" transform="translate(-578.8 -179)"/><path class="cls-4" d="M631.11,392.28s4-.32,5.87-1.27l3.34-1.11-3.05,50.42a28.17,28.17,0,0,1-26.85-4.92h0a7.14,7.14,0,0,0,3.1-6.59l-2-20.51,2.37-17.61Z" transform="translate(-578.8 -179)"/><path class="cls-15" d="M633.91,319.09s1.56,4.35,1.45,7.36l1.09,1.44a1,1,0,0,1-.19,1.39l-.79.62s1.23,6.36-1,6.8-3.68.67-3.68.67-1,3.12,0,4.79L634,350l-5,1.08-8.64-9.22,3.68-7.58s-3-2.93-2.44-6.22C622.4,323.63,627.34,318.58,633.91,319.09Z" transform="translate(-578.8 -179)"/><path class="cls-8" d="M624.58,326.85s8.41-1.7,9.93-5.84c0,0-.6-7.27-7.4-6.26s-11.47,3.79-11.25,11.25,8.25,8.25,8.25,8.25V330s-1.79-.44-1.45-2A1.52,1.52,0,0,1,624.58,326.85Z" transform="translate(-578.8 -179)"/><path class="cls-8" d="M616.16,322.6s-6-4.4-1.75-8.41,7.17,2.05,7.17,2.05A12.17,12.17,0,0,0,616.16,322.6Z" transform="translate(-578.8 -179)"/><polygon class="cls-1" points="60.49 182.24 82.41 174.47 82.41 180.48 62.87 189.14 60.49 182.24"/><path class="cls-1" d="M620.38,341.78s-5.68,1.32-7.49,9.63a20.81,20.81,0,0,0,.19,9.32l3.28,13.47s-6.24,27.83-5.92,35.64,1.91,18.9,1.91,18.9,11,4.44,16.89,1.27c0,0,4.58-57.08-.17-79Z" transform="translate(-578.8 -179)"/><path class="cls-1" d="M630.79,342.16a26.9,26.9,0,0,1,7.12,5.79,9,9,0,0,1,2,5.77v4L641.51,369l-3.41,59.75h-2.69S639.28,360.36,634,350Z" transform="translate(-578.8 -179)"/><path class="cls-1" d="M639.29,364l-13.54-15.84L615.29,357s15.34,17.84,22.36,18.75c4.86.64,18.13-3.76,25.83-6.52-.53-1.85-1.11-3.7-1.74-5.57Z" transform="translate(-578.8 -179)"/><path class="cls-15" d="M682.53,362.16A.85.85,0,0,0,682,362l-7.37,1,.61-.3a.63.63,0,0,0,.2-1,1.51,1.51,0,0,0-1.67-.33l-6.19,2.64-5.7.08c.58,1.72,1.11,3.41,1.6,5.11,3.13-1.13,5.27-2,5.27-2l3.07-.13c3.36-.06,8.36-2.43,10.67-3.63a.81.81,0,0,0,0-1.41Z" transform="translate(-578.8 -179)"/><polygon class="cls-3" points="83.08 185.18 84.86 185.16 86.54 189.61 84.67 190.29 83.08 185.18"/><path class="cls-4" d="M633.79,326.73c0,.35-.16.62-.35.62s-.35-.27-.35-.62.16-.61.35-.61S633.79,326.39,633.79,326.73Z" transform="translate(-578.8 -179)"/><path class="cls-8" d="M631.65,326.11a1.59,1.59,0,0,1,.24-.55,1.71,1.71,0,0,1,.4-.45,1.55,1.55,0,0,1,.54-.28,1,1,0,0,1,.61,0c-.18.1-.34.18-.49.28l-.42.32-.42.34A4.27,4.27,0,0,1,631.65,326.11Z" transform="translate(-578.8 -179)"/><path class="cls-1" d="M633.09,332.42a6.42,6.42,0,0,0,2.72,1.06v-1.83Z" transform="translate(-578.8 -179)"/><path class="cls-14" d="M631.23,372.81a.32.32,0,0,1-.23-.09l-13.74-13a.32.32,0,0,1,0-.46.33.33,0,0,1,.47,0l13.74,13a.33.33,0,0,1,0,.47A.34.34,0,0,1,631.23,372.81Z" transform="translate(-578.8 -179)"/><path class="cls-14" d="M640.83,364.49h0l-1.54-.16a.3.3,0,0,1-.22-.12l-3.26-3.81a.32.32,0,0,1,0-.46.33.33,0,0,1,.46,0l3.18,3.71,1.41.15a.33.33,0,0,1,.29.36A.33.33,0,0,1,640.83,364.49Z" transform="translate(-578.8 -179)"/><path class="cls-1" d="M1002.83,380.05a.33.33,0,0,1-.1-.64l12.38-4a.33.33,0,1,1,.2.63l-12.38,4Z" transform="translate(-578.8 -179)"/><path class="cls-11" d="M847.73,481.89v3.26s3.91,1.09,5.87-1v-2.28Z" transform="translate(-578.8 -179)"/><path class="cls-4" d="M847.73,485.15s4.57.54,5.87-1l7.6,3.7v1.41H847.73Z" transform="translate(-578.8 -179)"/><path class="cls-11" d="M824.18,481.89v3.26s-3.91,1.09-5.86-1v-2.28Z" transform="translate(-578.8 -179)"/><path class="cls-4" d="M824.18,485.15s-4.56.54-5.86-1l-7.61,3.7v1.41h13.47Z" transform="translate(-578.8 -179)"/><path class="cls-15" d="M827.48,327.1v4.29h11.28V327.1l1.6-1.43a4.33,4.33,0,0,0,2.44-3.37c.25-2.44-.59-3.28-1.94-2.78H825.52s-1.37-.78-1.82.51-.11,5.26,2.63,5.31Z" transform="translate(-578.8 -179)"/><path class="cls-4" d="M832.92,328c-.08,0-6.89-1.9-7.6-8.36s0-8.49,0-8.49,1.27-4.77,8.39-5,8.47,7.46,7.15,13.35C840.86,319.52,840.67,327.66,832.92,328Z" transform="translate(-578.8 -179)"/><path class="cls-1" d="M822.6,335s1.85-5.22,10.94-5.45c0,0,5.08-.56,9.3,4.94C842.84,334.5,834.55,328.72,822.6,335Z" transform="translate(-578.8 -179)"/><path class="cls-1" d="M822.6,335.45l-11.38,5.28a30.49,30.49,0,0,0-4.6,14.36,137,137,0,0,0,1,17.92,15.94,15.94,0,0,0,3,7.66l3.88,5.32.61,39.1s12.12,8.64,39,0V384.25l3.83-6.54a17.47,17.47,0,0,0,2.39-9c-.09-7.82-.95-22.66-5.88-28.65l-11-5S833,327.71,822.6,335.45Z" transform="translate(-578.8 -179)"/><path class="cls-14" d="M825.13,394.72a.33.33,0,0,1-.21-.07l-10.6-8.4a.33.33,0,1,1,.41-.51L825.11,394l4.43-4.1-14.69-29.12a.33.33,0,0,1,0-.15V348.24a.33.33,0,0,1,.33-.33.33.33,0,0,1,.33.33v12.27l14.78,29.26a.35.35,0,0,1-.07.39l-4.83,4.47A.31.31,0,0,1,825.13,394.72Z" transform="translate(-578.8 -179)"/><path class="cls-14" d="M840.63,395.46a.31.31,0,0,1-.24-.1l-4.62-4.93a.32.32,0,0,1,0-.38l16.45-32.45-.56-11a.33.33,0,0,1,.31-.35.32.32,0,0,1,.35.31l.56,11.11a.47.47,0,0,1,0,.17l-16.39,32.32,4.25,4.54L854,384a.32.32,0,0,1,.46.05.33.33,0,0,1-.05.46l-13.55,10.88A.35.35,0,0,1,840.63,395.46Z" transform="translate(-578.8 -179)"/><polygon class="cls-4" points="238.06 247.03 238.81 303.53 247 303.53 251.72 249.9 238.06 247.03"/><path class="cls-4" d="M838.07,428.61s8.71,53.92,8.71,53.92l7.52-.79L851.05,426Z" transform="translate(-578.8 -179)"/><path class="cls-15" d="M830.36,391.75l1.47.63,3.31-.1,1.72,2.6,1.37,1.69-5.29,4-.66-.53s-1.14.44-1.39-.58c0,0-1.73.44-1.56-1,0,0-1.75.08-1.09-1.33l.31-.64-1.31-1.73Z" transform="translate(-578.8 -179)"/><path class="cls-16" d="M835.79,396.59a.18.18,0,0,1-.1,0l-2.19-1.25a.71.71,0,0,1,.63-1.27l3.14,1.35a.2.2,0,1,1-.16.36L834,394.42a.31.31,0,0,0-.28.56l2.19,1.24a.2.2,0,0,1,.07.27A.18.18,0,0,1,835.79,396.59Z" transform="translate(-578.8 -179)"/><path class="cls-16" d="M835,397.75l-.1,0-1.79-1.09a.85.85,0,0,1-.18-1.31.84.84,0,0,1,1-.17l1.12.63a.2.2,0,0,1,.08.27.21.21,0,0,1-.28.08l-1.11-.64a.47.47,0,0,0-.57.09.46.46,0,0,0-.12.38.49.49,0,0,0,.22.34l1.79,1.08a.19.19,0,0,1,.06.27A.19.19,0,0,1,835,397.75Z" transform="translate(-578.8 -179)"/><path class="cls-16" d="M834.29,398.78a.23.23,0,0,1-.11,0l-1.63-1a.7.7,0,0,1-.32-.48.73.73,0,0,1,.13-.57.72.72,0,0,1,1-.17l1.07.68a.2.2,0,1,1-.22.34l-1.07-.69a.33.33,0,0,0-.44.08.34.34,0,0,0,0,.26.28.28,0,0,0,.14.21l1.64,1a.2.2,0,0,1,.06.27A.21.21,0,0,1,834.29,398.78Z" transform="translate(-578.8 -179)"/><path class="cls-16" d="M829.47,398.44h-.08a.2.2,0,0,1-.11-.26l.46-1.17a.49.49,0,0,0-.19-.6.5.5,0,0,0-.63.06l-.23.23a.2.2,0,0,1-.28,0,.19.19,0,0,1,0-.28l.24-.23a.9.9,0,0,1,1.46,1l-.46,1.17A.2.2,0,0,1,829.47,398.44Z" transform="translate(-578.8 -179)"/><path class="cls-16" d="M830.71,399.16h-.07a.19.19,0,0,1-.11-.25l.62-1.65a.46.46,0,0,0-.48-.61.5.5,0,0,0-.31.18l-.28.38a.19.19,0,0,1-.28,0,.2.2,0,0,1,0-.28l.28-.38a.86.86,0,0,1,.57-.33.85.85,0,0,1,.9,1.14L830.9,399A.21.21,0,0,1,830.71,399.16Z" transform="translate(-578.8 -179)"/><path class="cls-16" d="M832.22,399.8h0a.2.2,0,0,1-.19-.21l.08-1.52a.25.25,0,0,0-.08-.21.3.3,0,0,0-.48.07l-.36.79a.21.21,0,0,1-.27.09.19.19,0,0,1-.09-.26l.36-.78a.69.69,0,0,1,.63-.4.71.71,0,0,1,.5.21.7.7,0,0,1,.19.52l-.08,1.52A.2.2,0,0,1,832.22,399.8Z" transform="translate(-578.8 -179)"/><polygon class="cls-3" points="261.14 215.92 259.6 217.49 256.34 213.28 257.97 212.01 261.14 215.92"/><polygon class="cls-3" points="247.17 214.62 248.45 216.07 251.81 212.75 250.63 211.41 247.17 214.62"/><path class="cls-15" d="M670.38,229l.49,4a.55.55,0,0,0,.54.47h0a.54.54,0,0,0,.54-.55v-3.71l.69,0-.69,4.37a.56.56,0,0,0,.56.67h0a.58.58,0,0,0,.54-.39l2-4.68.2.2L673,234.29a.63.63,0,0,0,.57.88h0a.63.63,0,0,0,.49-.24l3.87-5,.19,0-3,3.8h0a1.08,1.08,0,0,0,1.28-.33l2.5-3.24a.94.94,0,0,0-.19-1.33,8.37,8.37,0,0,0-7.84-1.41s-5.47-.38-7.09,1.82l5.51.06A1.2,1.2,0,0,1,670.38,229Z" transform="translate(-578.8 -179)"/><path class="cls-15" d="M647.18,283.15a.74.74,0,0,0-.76.51c-.29,1.5-1.38,5.65,0,7.12a22,22,0,0,0,5.43,3.48,2.56,2.56,0,0,0,1.12.26H653a2.57,2.57,0,0,0,2.37-1.58l1.36-3.22s.21-2.88-2-3.2l-6.82,3.09-.15-5.9C647.73,283.37,647.18,283.15,647.18,283.15Z" transform="translate(-578.8 -179)"/><path class="cls-16" d="M651.62,289.51a.19.19,0,0,1-.16-.1.2.2,0,0,1,.06-.27l3.63-2.26a.2.2,0,0,1,.21.34l-3.63,2.26A.2.2,0,0,1,651.62,289.51Z" transform="translate(-578.8 -179)"/><path class="cls-16" d="M652.78,290.06a.21.21,0,0,1-.16-.08.21.21,0,0,1,0-.28l2.86-2.09a.2.2,0,1,1,.24.32L652.9,290A.28.28,0,0,1,652.78,290.06Z" transform="translate(-578.8 -179)"/><path class="cls-16" d="M653.44,291a.18.18,0,0,1-.16-.08.19.19,0,0,1,0-.27l2.53-1.95a.2.2,0,1,1,.24.31L653.56,291A.17.17,0,0,1,653.44,291Z" transform="translate(-578.8 -179)"/><path class="cls-3" d="M1050,475.5l1.71,1.38a1.11,1.11,0,0,1,.38,1.13c-.6,2.32-2.77,9.79-6.39,11a4.2,4.2,0,0,1-1,.23.81.81,0,0,1-.8-1.2,26.23,26.23,0,0,0,2.56-5.51s2.63.28,3.3-3.17Z" transform="translate(-578.8 -179)"/><path class="cls-15" d="M1050,475.5l-2.25-2.69-10.71-21.69L1030.39,436l-13.24,1.42,29.18,41.87.21,3.2C1050.84,482.63,1050,475.5,1050,475.5Z" transform="translate(-578.8 -179)"/><polygon class="cls-3" points="421.72 177.39 424 192.86 428.36 192.86 424.69 176.4 421.72 177.39"/><path class="cls-4" d="M1002.8,371.86s-1.25,44.77-.26,66.21c0,0,23.55,2.57,31.88-3.77l-8.13-40.64s-10.13,2.12-13.77-6.58a49.79,49.79,0,0,1-4-15.22Z" transform="translate(-578.8 -179)"/><path class="cls-8" d="M1010.33,339.46s-4.87,1.78-8.78-.38c0,0,3.33-17,9.56-21C1011.11,318.05,1014.64,333.17,1010.33,339.46Z" transform="translate(-578.8 -179)"/><path class="cls-1" d="M1006,346l-15-15.74a5.07,5.07,0,0,1-.92-1.37l-7.32-16.15,4.36-3.84,9.39,16.65,16.83,16.18Z" transform="translate(-578.8 -179)"/><path class="cls-15" d="M1011.11,318.05s-2.69,3.81-2.34,6.3l-1.56,1.45a.89.89,0,0,0-.06,1.27,1.35,1.35,0,0,0,.52.31s-1.51,5.73.51,6.47,2.6.48,2.6.48.37,3.12-.58,4.67a14.6,14.6,0,0,0-.86,1.48c-.88,1.91-2.62,5.93-2.45,7.58,0,0,10-7.67,12.56-7.72,0,0-2-4-2.06-7.3v-3.32s2.73,1,2.73-1.44a1.71,1.71,0,0,0-2.26-1.81S1011.61,323.2,1011.11,318.05Z" transform="translate(-578.8 -179)"/><path class="cls-8" d="M1011.11,318.05s4.89-5.2,11-1a11.6,11.6,0,0,1,4.95,8.9,19.92,19.92,0,0,1-.31,4.89l1.42,7.75a2.75,2.75,0,0,1-2.34,3.23,8.89,8.89,0,0,1-6.41-1.47s-2.93-5.62-2.07-10.62c0,0,2.11.83,2.5-1.32,0,0,.45-2-2-1.93C1017.85,326.47,1011.63,324.43,1011.11,318.05Z" transform="translate(-578.8 -179)"/><path class="cls-1" d="M1019.45,340.34s-8.21.79-12.58,5l-11.51,3.57-13.08-12.09-3,2.38s5.08,12.77,11.71,17.3a6.17,6.17,0,0,0,4.73.92l4.77-1,3-1s.61,5.91,1.54,14c.09.81.19,1.65.29,2.51s.21,1.85.33,2.81c1.88,15.89,4.6,36.35,6.49,39.92,5.82,11,21.92,9.16,21.92,9.16s-12.3-52.65-11.14-64.64C1024,347.56,1021.74,343.11,1019.45,340.34Z" transform="translate(-578.8 -179)"/><path class="cls-3" d="M1012.79,484.82v2.71a1,1,0,0,1-.85,1c-2.33.3-8.88,1.06-12.2.69a.73.73,0,0,1-.32-1.34,32,32,0,0,1,5.21-2.8s1.77,2.27,3.88,1.66A21.77,21.77,0,0,0,1012.79,484.82Z" transform="translate(-578.8 -179)"/><polygon class="cls-15" points="403.48 157.77 402.29 154.06 402.29 150.1 401.3 150.1 400.97 153.08 395.55 146.73 394.83 147.46 398.2 152.25 397.67 152.25 393.11 148.28 392.58 148.85 397.01 153.21 392.91 149.65 392.58 150.56 396.48 154.06 396.02 154.06 392.58 151.16 392.12 151.89 397.21 156.91 400.93 159.81 403.48 157.77"/><polygon class="cls-15" points="407.77 130.35 406.39 128.76 406.39 121.09 405.13 121.09 404.47 124.4 402.43 121.56 402.03 129.88 404.51 133.22 407.77 130.35"/><path class="cls-16" d="M982.74,307.82a.33.33,0,0,1-.32-.27,12.1,12.1,0,0,1,.53-4.25.35.35,0,0,1,.42-.22.33.33,0,0,1,.22.41,11.64,11.64,0,0,0-.52,3.95.33.33,0,0,1-.27.38Z" transform="translate(-578.8 -179)"/><path class="cls-15" d="M1003.88,438.19l1.19,16.79,2.48,28.53-2.92,1.53a3.62,3.62,0,0,0,2.62,1.74c2,.44,5.54-2,5.54-2l.11-3.15,1.87-43.09Z" transform="translate(-578.8 -179)"/><path class="cls-17" d="M1011,324.85a.51.51,0,0,1-.59.4.57.57,0,1,1,.59-.4Z" transform="translate(-578.8 -179)"/><path class="cls-8" d="M1010.14,322.77a1.07,1.07,0,0,1,.62-.22,1.34,1.34,0,0,1,.65.12,1.23,1.23,0,0,1,.52.44.91.91,0,0,1,.14.66c-.21-.11-.35-.22-.51-.29s-.28-.15-.43-.21S1010.54,323,1010.14,322.77Z" transform="translate(-578.8 -179)"/><path class="cls-8" d="M1009.59,320.73s2.18-.17,2.55-1.2l-.67-1.83A5.48,5.48,0,0,0,1009.59,320.73Z" transform="translate(-578.8 -179)"/><path class="cls-17" d="M1008.09,330.63a1.82,1.82,0,0,1-.71-.15.2.2,0,1,1,.16-.36s1,.4,1.35-.4a.2.2,0,0,1,.27-.09.19.19,0,0,1,.09.26A1.19,1.19,0,0,1,1008.09,330.63Z" transform="translate(-578.8 -179)"/><path class="cls-17" d="M1011.3,324.69l-.07,0-1.08-.66a.13.13,0,0,1,0-.18.13.13,0,0,1,.18-.05l1.08.66a.13.13,0,0,1,0,.18A.12.12,0,0,1,1011.3,324.69Z" transform="translate(-578.8 -179)"/><path class="cls-1" d="M960.76,471a.33.33,0,0,1-.33-.33V457.91a.33.33,0,0,1,.1-.23l8.55-8.29a.33.33,0,0,1,.47,0,.34.34,0,0,1,0,.47l-8.45,8.19v12.57A.33.33,0,0,1,960.76,471Z" transform="translate(-578.8 -179)"/><path class="cls-1" d="M965.08,460.11a6.49,6.49,0,0,1-4.53-1.71.36.36,0,0,1-.11-.24.37.37,0,0,1,.1-.24l12.65-12.64a.33.33,0,0,1,.47,0c2.77,2.93,2.12,8-1.47,11.64A10.28,10.28,0,0,1,965.08,460.11Zm-3.82-2c2.67,2.21,7.28,1.5,10.46-1.69s3.9-7.79,1.69-10.46Z" transform="translate(-578.8 -179)"/><path class="cls-1" d="M963.82,455.44a.32.32,0,0,1-.32-.25.33.33,0,0,1,.25-.4l7.23-1.64a.32.32,0,0,1,.39.24.33.33,0,0,1-.25.4l-7.23,1.65Z" transform="translate(-578.8 -179)"/><path class="cls-1" d="M955.31,451.58c-6.38,0-11.57-6.57-11.57-14.66a17.66,17.66,0,0,1,1.76-7.78.34.34,0,0,1,.3-.18h4.1l-2.28-2.54a.32.32,0,0,1,0-.44,10.31,10.31,0,0,1,7.7-3.72c6.39,0,11.58,6.58,11.58,14.66S961.7,451.58,955.31,451.58Zm-9.31-22a17,17,0,0,0-1.6,7.3c0,7.72,4.9,14,10.91,14s10.92-6.28,10.92-14-4.9-14-10.92-14a9.56,9.56,0,0,0-7,3.28l2.57,2.87a.32.32,0,0,1,.06.35.34.34,0,0,1-.3.2Z" transform="translate(-578.8 -179)"/><path class="cls-1" d="M955,474.85a.33.33,0,0,1-.33-.33V430.14a.33.33,0,0,1,.66,0v44.38A.33.33,0,0,1,955,474.85Z" transform="translate(-578.8 -179)"/><path class="cls-1" d="M949.65,474.85a.33.33,0,0,1-.33-.33V454.07l-13.94-13.52a.33.33,0,0,1,.46-.48l14,13.62a.33.33,0,0,1,.1.24v20.59A.33.33,0,0,1,949.65,474.85Z" transform="translate(-578.8 -179)"/><path class="cls-1" d="M942.64,457.29a16.5,16.5,0,0,1-11.36-5.11c-5.75-5.75-6.8-13.91-2.39-18.58a.35.35,0,0,1,.24-.1.27.27,0,0,1,.24.1l20.49,20.49a.37.37,0,0,1,.1.24.34.34,0,0,1-.11.24A10.31,10.31,0,0,1,942.64,457.29Zm-13.5-23c-3.82,4.38-2.69,12.1,2.61,17.4s13,6.42,17.4,2.6Z" transform="translate(-578.8 -179)"/><path class="cls-1" d="M955,437.45a.36.36,0,0,1-.24-.09.35.35,0,0,1,0-.47l4.69-4.68a.33.33,0,1,1,.46.46l-4.68,4.69A.33.33,0,0,1,955,437.45Z" transform="translate(-578.8 -179)"/><path class="cls-1" d="M955,442.59a.37.37,0,0,1-.24-.1l-4.92-4.93a.33.33,0,0,1,0-.47.34.34,0,0,1,.46,0l4.93,4.93a.33.33,0,0,1,0,.47A.34.34,0,0,1,955,442.59Z" transform="translate(-578.8 -179)"/><path class="cls-1" d="M939.32,444.35h0l-8.81-.53a.33.33,0,0,1-.31-.35.31.31,0,0,1,.35-.31l8.81.53a.33.33,0,0,1,0,.66Z" transform="translate(-578.8 -179)"/><path class="cls-14" d="M937.85,470.3v8.83a11.11,11.11,0,0,0,2.17,6.61,1.94,1.94,0,0,1,.21.2,3.14,3.14,0,0,1,.43.6l.06.07.13.15h0l.19.19c.24.25.49.48.75.71a11.19,11.19,0,0,0,7.26,2.66h11.07a11.2,11.2,0,0,0,11.11-9.77h0c0-.15,0-.31,0-.46s0-.12,0-.18,0-.24,0-.36,0-.27,0-.41V470.3Z" transform="translate(-578.8 -179)"/><path class="cls-1" d="M960,474c.3-.2,1-.3,1,0,0-.33,0-.33.45-.59,0,.22.41.15.67.12a2.35,2.35,0,0,0-1.11-.2c-.52.5-1.67-.19-2.15.35C959.18,473.81,959.54,474.13,960,474Z" transform="translate(-578.8 -179)"/><path class="cls-1" d="M962.46,475.37l.08-.14-.93.24C961.79,475.36,962.43,475.21,962.46,475.37Z" transform="translate(-578.8 -179)"/><path class="cls-1" d="M965.47,474.91c-.08.25.4.37.4.6,0-.49.74-.13,1.15-.2l.15-.38a6.15,6.15,0,0,0-2.26-.12Z" transform="translate(-578.8 -179)"/><path class="cls-1" d="M966.25,475.17l.26-.25C966.28,475,965.76,475,966.25,475.17Z" transform="translate(-578.8 -179)"/><path class="cls-1" d="M965.63,473.87c-.67,0,.4.14-.27.25C965.59,474,965.85,474,965.63,473.87Z" transform="translate(-578.8 -179)"/><polygon class="cls-1" points="389.64 295.53 388.23 295.75 388.82 295.9 389.64 295.53"/><path class="cls-1" d="M968.54,475.32c-.18,0-.48-.12-.22-.26.52.28.82-.15,1.3.09l-.45.14c.08.31.93-.35.93.21.59-.42-.48-.46.3-.77a5.87,5.87,0,0,1-1.93-.05,2.44,2.44,0,0,0,.52.17c-.44,0-1,.22-1.56.27C967.73,475.47,968.1,475.13,968.54,475.32Z" transform="translate(-578.8 -179)"/><path class="cls-1" d="M970.88,474.86s0,.07,0,.12S970.84,474.91,970.88,474.86Z" transform="translate(-578.8 -179)"/><path class="cls-1" d="M971.32,475.16c-.12-.05-.43-.07-.47-.18-.07.1-.19.24-.05.35h.52Z" transform="translate(-578.8 -179)"/><path class="cls-1" d="M964.35,475.49a1.24,1.24,0,0,1-.3,0l.3,0Z" transform="translate(-578.8 -179)"/><path class="cls-1" d="M964,474.94c.53-.27.59.59,1.45.38l-1.08.17C963.84,475.1,964.72,475.26,964,474.94Z" transform="translate(-578.8 -179)"/><path class="cls-1" d="M971.15,474.22h0C971.24,474.19,971.21,474.21,971.15,474.22Z" transform="translate(-578.8 -179)"/><polygon class="cls-1" points="361.82 297.15 361.82 297.26 361.34 297.14 361.82 297.15"/><path class="cls-1" d="M940.69,476.35a15,15,0,0,1-2.68.13h-.44a.66.66,0,0,0,0,.14l.29.07,3.66-.17Z" transform="translate(-578.8 -179)"/><path class="cls-1" d="M940.91,476.17c.45-.48.78.14,1.34-.2-.37.23-.63.48-1,.37Z" transform="translate(-578.8 -179)"/><path class="cls-18" d="M942.48,475.23c.26.08.56-.12.7-.06C943.11,475.53,942.7,475.27,942.48,475.23Z" transform="translate(-578.8 -179)"/><path class="cls-1" d="M943.12,473.86h.12l-.12.07Z" transform="translate(-578.8 -179)"/><path class="cls-1" d="M943.12,473.92v.16C943,474,943.06,474,943.12,473.92Z" transform="translate(-578.8 -179)"/><path class="cls-1" d="M943.24,473.85a1,1,0,0,0,.29-.18l-.11,0c.15,0,.41-.18.48-.09-.29,0-.29.09-.3.31l.49,0C944,474.42,943.67,473.87,943.24,473.85Z" transform="translate(-578.8 -179)"/><path class="cls-18" d="M944.75,473.67l-.48.32C944.12,473.71,944.57,473.68,944.75,473.67Z" transform="translate(-578.8 -179)"/><path class="cls-1" d="M945.49,474c-.11.09-.59.08-.3.21a.38.38,0,0,1-.26.05C945.25,474.17,944.93,473.82,945.49,474Z" transform="translate(-578.8 -179)"/><path class="cls-1" d="M944.93,474.25l-.14,0Z" transform="translate(-578.8 -179)"/><path class="cls-18" d="M939.81,475.74c.06,0,.06.08,0,.12Z" transform="translate(-578.8 -179)"/><path class="cls-1" d="M946.49,474.29h.19l-.15,0Z" transform="translate(-578.8 -179)"/><path class="cls-1" d="M971.32,473.76h0a.89.89,0,0,1,0-.23h0l-.09.05c.15-.27-.45-.19-.33-.39l-1.23.22,0-.26.29.13c.34-.61-.59.07-1-.26v.23c-1.08-.16-.45-.19-1.33-.36l-.27.26c0,.06.79-.31.78,0-.56.24-1.33.21-1.93.51l.41-.53c-.2.2-.59-.31-1.14-.24l.51.17c-.41.52-1.44.07-2.11.4.18,0,.37,0,.4.14-.15.16-.59.08-.85,0,.08-.58,1.6-.34,1.42-.79-.78,0-1.42.68-1.9.55l.37-.34-.37.12.12,0c-.16.27-.49,0-.78.08l.18-.34h-.55l.07.09a6,6,0,0,1-2.49,0l.49.12c0,.07-.3.1-.52.06.07.2.66.12.62.3a10.1,10.1,0,0,1-1.66-.42c-.07.14.52.51-.12.65,0-.29-.51-.39-.1-.69-.54.22-.42-.21-.85.14a.42.42,0,0,1,.22,0c.14.17-.23.18-.38.23a1.34,1.34,0,0,0-.81-.41l-.85.22a.12.12,0,0,1,0-.12c-.82.15-1.71,0-2.3.18-.08.13-.3.32.14.29-.33.27-.81,0-1.18-.07l.3-.32c-1,.11-2.3-.27-3.23.08l.18.22c-.89.17-1.78-.1-2.26.11.67.34-.44.25-.63.37a8.21,8.21,0,0,0,1.66-.16l0,0,1.19-.26v.33c0-.73,1.63.26,1.37-.38a.36.36,0,0,1,.44.41l.93-.24c.11.14-.07.47-.19.45-.37,0-1,.31-1.33,0-.3.21.29.35-.38.45-1.14-.35-2.48.07-3.29-.22.18.1.37.1.14.28l-.55-.24c-.45.09-.67.49-1,.29-.11.2.82.19,1.11.31-.41.75-1-.35-1.41.23-.19.45,1.19-.15.82.41l-.63-.08c.44.53,1-.22,1.22.33a1.15,1.15,0,0,1-1,0c-.18.11.37.33,0,.49-.37-.22-.52.16-.82-.08l.15-.26a6.21,6.21,0,0,0-1.22,0c0-.38.71-.62,1-.6-.25-.2-.74-.1-1-.07l.49.12c-.71.06-.53.61-1.35.54-.66.1-.18-.33-.4-.48-.74.23-.26,0-.22.4-.6.08-.75-.1-1.53,0,.45-.15.57-.35,1-.27l-.15-.28c-.59.18-1,.55-1.75.83l-.07-.24a9.67,9.67,0,0,1-2,.24l-.27.15c0,.13,0,.26,0,.39l.29.07v.47c1.76,0,3.55-.72,5.06-.22l.6-.41c0,.15.11.35.4.26-.11,0-.29,0-.26-.09l1.38-.05-.15-.17c.44.19,1.23-.23,1.71.12,0-.11.29-.2.26-.36,1.37.29,2.86-.3,4,.17-.11-.13,0-.22,0-.29.44,0,.11.13.22.27.16-.94,6,.15,6.75-.35-.11,0-.22,0-.18-.11,2.09-.13,4.37-.18,6.37-.42-.53,0-.15-.54-.47-.63-.34.17.44.2,0,.34-.63-.53-.42.41-1.08-.05l.34-.27a10.83,10.83,0,0,1-2.71.36l.07-.36c-.33.16-.81.15-.89-.16,1.08.05,1.24-.78,1.9-.43-.07.13,0,.06,0,.15a1.3,1.3,0,0,1,1.26-.4l-.19.22a19.38,19.38,0,0,0,2.45-.11c-.22-.15,0-.33.34-.38.51.06-.15.16.07.31.33.39,1.22-.22,1.6-.23-.12.09,1,.18.32.39.82.08,1.38-.49,1.93-.06a1.05,1.05,0,0,1,.49-.43v.34l.26-.25c.54,0,.84.64,1.38.34-.11,0-.32.06-.35-.12S971.09,473.87,971.32,473.76ZM938,476.48a.29.29,0,0,1-.16,0,1.15,1.15,0,0,1-.26,0l.22,0h0l.21,0Z" transform="translate(-578.8 -179)"/><path class="cls-1" d="M956.91,485c-.18.24-.66.42-.72.1.06.32.06.32-.22.63,0-.22-.33-.1-.52,0,.19.12.42.1.86.06.3-.55,1.27,0,1.53-.61C957.55,485.05,957.22,484.78,956.91,485Z" transform="translate(-578.8 -179)"/><path class="cls-1" d="M954.83,483.93l0,.14.64-.35C955.32,483.85,954.88,484.07,954.83,483.93Z" transform="translate(-578.8 -179)"/><path class="cls-1" d="M952.68,484.75c0-.25-.37-.32-.41-.53.12.47-.52.21-.81.33l0,.4c.34.2,1.06-.07,1.69-.17Z" transform="translate(-578.8 -179)"/><path class="cls-1" d="M952.06,484.6l-.15.27C952.06,484.78,952.44,484.66,952.06,484.6Z" transform="translate(-578.8 -179)"/><path class="cls-1" d="M952.76,485.8c.5-.08-.33-.1.15-.28C952.76,485.62,952.57,485.68,952.76,485.8Z" transform="translate(-578.8 -179)"/><polygon class="cls-1" points="371.76 306.5 372.76 306.1 372.3 306.03 371.76 306.5"/><path class="cls-1" d="M950.33,484.73c.13,0,.38.06.21.23-.44-.21-.58.25-1,.07l.31-.19c-.11-.3-.63.46-.73-.09-.36.48.44.39-.08.79a3.36,3.36,0,0,1,1.44-.19,1.52,1.52,0,0,0-.42-.1c.33-.08.73-.34,1.11-.46C950.9,484.48,950.69,484.86,950.33,484.73Z" transform="translate(-578.8 -179)"/><path class="cls-1" d="M948.65,485c-.36,0-.91.15-.91.58.43.21.42-.15.56-.36.12,0,.48,0,.38.25C948.61,485.4,948.84,485.13,948.65,485Z" transform="translate(-578.8 -179)"/><path class="cls-1" d="M947.25,485.23l-.18.42.15-.09.08.25c0-.07,0-.57.39-.62C947.47,485,947.45,485.28,947.25,485.23Z" transform="translate(-578.8 -179)"/><path class="cls-1" d="M947.55,487.05c-.27-.12-.39,0-.64.17.37-.11.92-.22,1-.39l0,.07a3.07,3.07,0,0,0,.52-.58C948.08,486.66,947.3,486.42,947.55,487.05Z" transform="translate(-578.8 -179)"/><path class="cls-1" d="M948.05,487l-.23.27Z" transform="translate(-578.8 -179)"/><polygon class="cls-1" points="367.38 306.55 367.94 306.56 367.79 306.48 367.38 306.55"/><path class="cls-1" d="M947.06,486.52c-.45,0,.3.23-.11.31-.1.07.59-.14.59-.32S947.17,486.81,947.06,486.52Z" transform="translate(-578.8 -179)"/><path class="cls-1" d="M945.81,485.6l-.38.37Z" transform="translate(-578.8 -179)"/><path class="cls-1" d="M944.66,485.66l0,.22c-.47-.07-1,.33-1.4,0,.13.23-.07.54.33.53,0-.14.17-.17.11-.32.17,0,.18.2.3.24.23-.27.7-.2.88-.44-.1.06-.14,0-.22,0,.4-.44.66.37.75-.24C945.24,485.85,944.87,485.54,944.66,485.66Z" transform="translate(-578.8 -179)"/><path class="cls-1" d="M945,487h.4c-.06.29-.46.12-.47.37s.45.14.33.27c-.09-.61.51-.14.17-.78.47-.18.23.34.74.2l.08-.36C945.7,487,945.53,486.7,945,487Z" transform="translate(-578.8 -179)"/><path class="cls-1" d="M942.29,487.63l.24-.06c0,.1-.23.08-.27.06Z" transform="translate(-578.8 -179)"/><path class="cls-1" d="M943,487.31a.74.74,0,0,0-.43.22l0,0h0l0-.08a.68.68,0,0,1-.22.14h0a1.07,1.07,0,0,1-.47,0c-.26-.23-.51-.46-.75-.71a.92.92,0,0,0,.3-.17l0,0a.39.39,0,0,1,.3,0C942,486.8,942.46,487.2,943,487.31Z" transform="translate(-578.8 -179)"/><path class="cls-1" d="M943.43,487.3h0a1,1,0,0,1-.49,0A1.55,1.55,0,0,1,943.43,487.3Z" transform="translate(-578.8 -179)"/><path class="cls-1" d="M944.3,486.76l-.38.54-.25-.26c-.17.1-.07.25.08.33a1.38,1.38,0,0,0-.32-.07l-.15-.26.22.16C943.45,486.62,944,487.13,944.3,486.76Z" transform="translate(-578.8 -179)"/><path class="cls-1" d="M944.15,487.64c.6.05-.17-.44.49-.43l-.65.17Z" transform="translate(-578.8 -179)"/><path class="cls-1" d="M941.92,486.33a.51.51,0,0,1,.17,0Z" transform="translate(-578.8 -179)"/><path class="cls-1" d="M941.81,486.34h0Z" transform="translate(-578.8 -179)"/><path class="cls-1" d="M953.4,484a.9.9,0,0,1,.22-.07l-.21.07Z" transform="translate(-578.8 -179)"/><path class="cls-1" d="M953.78,484.54c-.34.33-.55-.51-1.14-.19.24-.11.5-.21.77-.31C953.85,484.36,953.17,484.31,953.78,484.54Z" transform="translate(-578.8 -179)"/><path class="cls-1" d="M948.6,486.14h0Z" transform="translate(-578.8 -179)"/><polygon class="cls-1" points="392.07 301.44 392.06 301.33 392.43 301.39 392.07 301.44"/><path class="cls-1" d="M971.48,480s0-.06,0-.09v0h0v0l-.21,0-1.15.27.64.08s.18-.1.5-.17Z" transform="translate(-578.8 -179)"/><path class="cls-1" d="M970.65,480.46c-.25.52-.6,0-1,.36.24-.27.39-.55.68-.49Z" transform="translate(-578.8 -179)"/><path class="cls-18" d="M969.66,481.58c-.21-.05-.39.19-.51.14C969.14,481.36,969.49,481.56,969.66,481.58Z" transform="translate(-578.8 -179)"/><path class="cls-1" d="M969.43,483a.15.15,0,0,1-.09,0,.3.3,0,0,0,.08-.08Z" transform="translate(-578.8 -179)"/><path class="cls-1" d="M969.42,482.94l0-.16A.1.1,0,0,1,969.42,482.94Z" transform="translate(-578.8 -179)"/><path class="cls-1" d="M969.34,483a.92.92,0,0,0-.18.22h.09c-.11.07-.27.24-.35.16.23,0,.21-.13.17-.35l-.36.05C968.67,482.56,969,483.06,969.34,483Z" transform="translate(-578.8 -179)"/><path class="cls-18" d="M968.25,483.39l.3-.38C968.71,483.28,968.39,483.36,968.25,483.39Z" transform="translate(-578.8 -179)"/><path class="cls-1" d="M967.65,483.17c.07-.11.42-.15.18-.24a.25.25,0,0,1,.19-.09C967.8,483,968.1,483.26,967.65,483.17Z" transform="translate(-578.8 -179)"/><path class="cls-1" d="M968,482.84l.1,0Z" transform="translate(-578.8 -179)"/><path class="cls-1" d="M966.86,483l-.14,0,.11,0Z" transform="translate(-578.8 -179)"/><path class="cls-1" d="M971.49,479.94v0h0v0l-.21,0c0-.12,0-.24,0-.36a4,4,0,0,1-2.28.39l-.37.48c-.06-.15-.15-.34-.35-.21.09,0,.22,0,.21.05l-1,.22.14.15c-.37-.13-.87.38-1.29.09,0,.12-.18.25-.12.39-1.07-.11-2.07.65-3,.34.1.11,0,.21,0,.29-.32.08-.11-.12-.21-.24.05.94-4.5.6-4.94,1.19.09,0,.17,0,.16.08-1.53.39-3.22.72-4.65,1.21.4-.06.21.5.46.55.22-.2-.36-.13-.05-.33.55.44.22-.45.8-.08l-.2.31a5.81,5.81,0,0,1,1.94-.7v.37c.22-.21.58-.25.69,0-.81.09-.77.92-1.32.67,0-.15,0-.08-.06-.15-.15.28-.45.65-.86.55l.1-.25a12.15,12.15,0,0,0-1.8.42c.2.12.06.33-.18.42s.09-.18-.11-.3c-.32-.34-.86.38-1.14.43.07-.11-.77-.06-.31-.35-.62,0-.93.66-1.42.3a.82.82,0,0,1-.28.48l-.06-.33-.15.28c-.4.08-.74-.52-1.08-.16.07,0,.22-.1.27.07s-.72.53-.49.86l.28-.3c-.06.29.37.13.32.35l.87-.37.07.25-.24-.09c-.14.64.43-.15.76.13l0-.22c.82,0,.36.13,1.05.18l.15-.28c0-.07-.52.4-.58.07.37-.3,1-.37,1.33-.73l-.2.57c.11-.23.49.23.89.09l-.42-.11c.22-.55,1.06-.24,1.5-.64-.14,0-.27,0-.33-.1s.43-.15.64-.1c0,.58-1.13.53-.91.94.58-.06.92-.83,1.3-.77l-.21.38.25-.16h-.08c.06-.29.36-.05.56-.18l-.08.35.41-.08-.07-.07a3.32,3.32,0,0,1,1.85-.27l-.38-.07c0-.06.2-.12.37-.11-.09-.19-.51,0-.52-.22.59-.07.71.16,1.31.2,0-.14-.47-.43,0-.65,0,.29.46.32.2.66.36-.28.36.16.61-.23a.28.28,0,0,1-.16,0c-.15-.15.13-.2.23-.27a1,1,0,0,0,.68.3l.59-.32a.17.17,0,0,1,0,.11c.58-.25,1.26-.2,1.67-.46,0-.14.17-.35-.16-.26.2-.31.6-.14.89-.08l-.16.35c.75-.24,1.75,0,2.37-.48l-.17-.2c.63-.28,1.33-.12,1.65-.39-.55-.25.29-.3.4-.44-.47,0-1.09.39-1.19.36l0,0-.83.41-.06-.33c.1.73-1.26-.05-.95.55-.24.09-.4-.17-.4-.36l-.65.36c-.1-.12,0-.47.06-.47.27-.05.66-.42,1-.15.19-.23-.28-.3.2-.49.91.21,1.83-.37,2.48-.18-.15-.08-.29-.06-.16-.27l.46.17c.31-.14.41-.56.69-.41,0-.21-.64-.08-.88-.17.17-.78.78.23,1-.4.06-.46-.85.3-.67-.3h.48c-.42-.46-.73.35-1-.17.13-.21.65-.18.72-.1.12-.14-.33-.27-.11-.48.31.17.36-.22.62,0l-.07.28c.19-.06.71,0,.91-.15.09.36-.42.69-.64.71.23.16.57,0,.75-.06l-.37-.06c.51-.14.27-.67.89-.69.48-.19.2.3.39.42.51-.32.18-.06.09-.43.43-.15.57,0,1.13-.17-.3.2-.35.41-.69.38l.15.27a9.75,9.75,0,0,0,1-.89h0c0-.15,0-.31,0-.46l.2-.05S971.49,480,971.49,479.94Z" transform="translate(-578.8 -179)"/><path class="cls-1" d="M942.41,486.67c-.34-.28-.89-.05-1-.27-.06.11.19.19,0,.32s-.32-.15-.57-.3l-.08.19v0a.47.47,0,0,1,0,.1l.09,0h0l.49,0,.4,0a.08.08,0,0,1-.07,0s0,0,0-.06C941.83,486.27,942.5,487,942.41,486.67Z" transform="translate(-578.8 -179)"/><path class="cls-1" d="M702.6,214.73l-.09-.37s-1-4.27,2.22-6.37c4.11-2.66,12.08-9.12,10.66-12.15l-1.7-2.1.64,0a4,4,0,0,1,2.82,1.11c1.07,1,1.56,2.68,1.48,4.89-.24,6.44-5.18,11.07-10,12.81-5.07,1.83-5.68,2.07-5.7,2.08Zm12.51-20.29.85,1.07c2.18,4.4-10.74,13-10.87,13-2.34,1.52-2.16,4.29-2,5.29.57-.21,2-.73,5.34-2,4.59-1.66,9.33-6.08,9.55-12.21.08-2-.35-3.49-1.28-4.4A3.31,3.31,0,0,0,715.11,194.44Z" transform="translate(-578.8 -179)"/><path class="cls-1" d="M702.56,214.09H701.4c-.38,0-.78,0-2.29-8.93l-.06-.31a34.18,34.18,0,0,1,.17-13.82c.82-3.47,2.75-9.63,6.49-11.88L706,179l.18.24c2.63,3.44,2.67,9.12,1.84,13.29a86.68,86.68,0,0,1-3.26,10.91c-1.54,4.46-3,8.67-2.36,10.19Zm-1-.66h.09c-.39-1.93.89-5.63,2.48-10.21a86.73,86.73,0,0,0,3.23-10.82c.79-3.93.78-9.22-1.53-12.52-3.37,2.24-5.16,8-5.94,11.3a33.57,33.57,0,0,0-.16,13.55l.06.32C700.88,211.66,701.37,213.11,701.53,213.43Z" transform="translate(-578.8 -179)"/><path class="cls-1" d="M701.36,214.09h-1.58c-1.13,0-2.22-1.32-3.28-2.59a9.46,9.46,0,0,0-1.5-1.59,16.65,16.65,0,0,0-3.48-1.67,15.81,15.81,0,0,1-4-2c-2.85-2.18-4.47-6.17-4.32-10.66a1.05,1.05,0,0,1,.24-.75,1.11,1.11,0,0,1,.79-.27c2.74-.11,5.38-.07,7.59,1.68C695.4,199,701,213,701.18,213.64Zm-15.64-18.94c-.48,0-1,0-1.45,0-.1,0-.29,0-.34.07a.59.59,0,0,0-.06.31c-.14,4.28,1.38,8.06,4.06,10.12a15.31,15.31,0,0,0,3.83,1.93,17.5,17.5,0,0,1,3.62,1.75,10.08,10.08,0,0,1,1.63,1.71c.87,1,2,2.35,2.77,2.35h.61c-1-2.47-5.88-14.26-9-16.7A8.73,8.73,0,0,0,685.72,195.15Z" transform="translate(-578.8 -179)"/><path class="cls-14" d="M704.92,229.12H699.3a6.21,6.21,0,0,1-6-4.74l-1.56-9.68a.83.83,0,0,1,.81-1H711.7a.83.83,0,0,1,.81,1L711,224.38A6.22,6.22,0,0,1,704.92,229.12Z" transform="translate(-578.8 -179)"/><path class="cls-1" d="M701.26,209.88c0-2.23.07-4.46.19-6.68s.31-4.45.54-6.67.54-4.43,1-6.62c.22-1.1.45-2.19.75-3.27q.24-.81.54-1.59a5.12,5.12,0,0,1,.8-1.47,10.15,10.15,0,0,0-1,3.14c-.23,1.08-.42,2.18-.57,3.27q-.45,3.3-.8,6.62l-.69,6.63-.34,3.32Z" transform="translate(-578.8 -179)"/><path class="cls-1" d="M705.42,211.66c0-.21.22-.35.35-.49a6,6,0,0,1,.49-.39c.33-.26.68-.48,1-.75l1.9-1.57c1.27-1,2.6-2,3.74-3.12a11.23,11.23,0,0,0,2.72-3.89,14,14,0,0,0,.71-2.31c.21-.79.33-1.6.48-2.41a15.52,15.52,0,0,1-.72,4.9,9,9,0,0,1-1.11,2.26,12.47,12.47,0,0,1-1.62,1.92,31.41,31.41,0,0,1-3.9,3.06l-2,1.42c-.34.25-.72.42-1.07.63l-.51.32C705.68,211.36,705.48,211.46,705.42,211.66Z" transform="translate(-578.8 -179)"/><path class="cls-1" d="M698.76,211.66a7.24,7.24,0,0,1-1.77-1.93c-.49-.73-1-1.44-1.51-2.11a33.84,33.84,0,0,0-3.51-3.77c-1.26-1.18-2.61-2.28-3.89-3.47-.64-.59-1.27-1.2-1.87-1.83a19.89,19.89,0,0,1-1.65-2c.6.63,1.22,1.24,1.87,1.8s1.3,1.15,2,1.69c1.35,1.09,2.71,2.17,4,3.36a23,23,0,0,1,4.85,6.2A8,8,0,0,0,698.76,211.66Z" transform="translate(-578.8 -179)"/><rect class="cls-1" x="113.03" y="36.1" width="20.56" height="0.66"/></svg>
